<?xml version="1.0" encoding="utf-8"?>
<!-- Generator: Adobe Illustrator 26.0.1, SVG Export Plug-In . SVG Version: 6.00 Build 0)  -->
<svg version="1.1" id="Calque_1" xmlns="http://www.w3.org/2000/svg" xmlns:xlink="http://www.w3.org/1999/xlink" x="0px" y="0px"
	 viewBox="0 0 350 60.2" style="enable-background:new 0 0 350 60.2;" xml:space="preserve">
<style type="text/css">
	.st0{fill:#EDEDED;}
	.st1{fill:#FCC92D;}
	.st2{fill:#F49738;}
	.st3{fill:#9D9C9B;}
	.st4{fill:#726F6F;}
	.st5{fill:#535251;}
	.st6{fill:none;}
	.st7{fill:#F7A82C;}
	.st8{fill:#FFFFFF;}
</style>
<g>
	<g>
		<path class="st0" d="M17.2,46.6v6h-4.1V35.1h6.7c2.1,0,3.7,0.5,4.9,1.6s1.8,2.4,1.8,4.2c0,1.7-0.6,3.1-1.8,4.2
			c-1.2,1.1-2.9,1.6-4.9,1.6L17.2,46.6L17.2,46.6z M17.2,43.5h2.6c0.9,0,1.6-0.2,2-0.7s0.7-1.1,0.7-1.9c0-0.8-0.2-1.4-0.7-1.9
			s-1.1-0.7-2-0.7h-2.6V43.5z"/>
		<path class="st0" d="M41.5,45.1h-6.2v4.4h7.4v3.1H31.3V35.1h11.4v3.1h-7.4V42h6.2L41.5,45.1z"/>
		<path class="st0" d="M57.6,45.1h-6.2v4.4h7.4v3.1H47.4V35.1h11.4v3.1h-7.4V42h6.2V45.1z"/>
		<path class="st0" d="M67.6,45.9v6.7h-4.1V35.1h6.1c2,0,3.6,0.5,4.8,1.4c1.2,0.9,1.8,2.2,1.8,3.8c0,0.9-0.2,1.7-0.7,2.3
			s-1.2,1.2-2.1,1.6c1.1,0.3,1.8,0.8,2.3,1.5s0.7,1.6,0.7,2.6v1.1c0,0.5,0.1,1,0.2,1.6s0.4,1,0.7,1.2v0.2h-4.2
			c-0.3-0.2-0.5-0.7-0.6-1.3c-0.1-0.6-0.1-1.2-0.1-1.8v-1.1c0-0.8-0.2-1.5-0.7-1.9c-0.4-0.4-1.1-0.7-1.9-0.7h-2.2V45.9z M67.6,42.8
			h2.1c0.8,0,1.4-0.2,1.9-0.6c0.4-0.4,0.6-0.9,0.6-1.6c0-0.7-0.2-1.3-0.7-1.7c-0.4-0.4-1.1-0.7-1.9-0.7h-2V42.8z"/>
		<path class="st0" d="M86,52.6h-4V35.1h4V52.6z"/>
		<path class="st0" d="M106,52.6h-4l-6.4-11h-0.1v11h-4.1V35.1h4.1l6.4,11h0.1V35.2h4V52.6z"/>
		<path class="st0" d="M125.1,50.2c-0.6,0.7-1.5,1.4-2.6,1.9s-2.5,0.8-4.3,0.8c-2.2,0-3.9-0.7-5.3-2c-1.4-1.3-2-3-2-5.2v-3.6
			c0-2.1,0.7-3.8,2-5.2c1.3-1.3,3-2,5.1-2c2.2,0,3.9,0.5,5.1,1.5c1.1,1,1.7,2.4,1.6,4.1v0.1h-3.8c0-0.9-0.2-1.5-0.7-1.9
			s-1.1-0.6-2.1-0.6c-0.9,0-1.7,0.4-2.3,1.1c-0.6,0.7-0.9,1.7-0.9,2.9v3.7c0,1.2,0.3,2.2,0.9,2.9c0.6,0.7,1.4,1.1,2.4,1.1
			c0.7,0,1.3-0.1,1.8-0.2c0.4-0.1,0.8-0.3,1-0.5V46h-3.1v-2.7h7.1v6.9H125.1z"/>
	</g>
	<g>
		<polygon class="st0" points="206.7,36.3 202.8,46.9 210.6,46.9 206.8,36.3 		"/>
		<polygon class="st0" points="169.3,36.3 165.5,46.9 173.2,46.9 169.4,36.3 		"/>
		<path class="st0" d="M264.2,39.5c0-1.3-0.4-2.3-1.2-3c-0.8-0.7-2.1-1.1-3.8-1.1h-5v8.1h4.8c1.8,0,3.1-0.4,4-1.1
			C263.8,41.7,264.2,40.7,264.2,39.5z"/>
		<path class="st0" d="M278.7,30.8c0-2.6-1.1-3.6-3.8-3.7c-5.4,0-265.4,0-268.7,0c-3.3,0-4.2,0.9-4.3,4.2c0,7.6,0,15.2,0,22.8
			c0,4.1,0.6,4.7,4.9,4.7c88.6,0,177.2,0,265.8,0c0.8,0,1.5,0,2.3,0c2.5-0.1,3.7-1.1,3.8-3.7C278.8,47,278.8,38.9,278.7,30.8z
			 M131.1,54.5H7.7V32h123.4V54.5z M157.9,54h-1.6V37.2h-0.1L149,54h-1.2l-7.3-17.2h-0.1V54h-1.6V34h2.2l7.4,17.6h0.1l7.4-17.6h2
			L157.9,54L157.9,54z M175.7,54l-2-5.6h-8.8l-2,5.6h-1.7l7.4-20h1.6l7.3,20H175.7z M195.3,54h-1.6l-11.4-17.2h-0.1v17.1h-1.6v-20
			h1.6L193.6,51h0.1V33.9h1.6V54z M213.1,54l-2-5.6h-8.8l-2,5.6h-1.7l7.4-20h1.6l7.3,20H213.1z M231.9,51.3c-0.4,0.7-1.3,1.4-2.4,2
			c-1.2,0.6-2.7,0.9-4.5,0.9c-2.3,0-4.2-0.8-5.6-2.4c-1.5-1.6-2.2-3.6-2.2-6.2v-3.7c0-2.5,0.7-4.5,2.1-6c1.4-1.6,3.3-2.3,5.5-2.3
			s3.9,0.6,5.2,1.7c1.3,1.1,1.9,2.6,1.9,4.4v0.1h-1.5c0-1.4-0.5-2.5-1.4-3.4c-1-0.9-2.3-1.3-4.1-1.3s-3.2,0.7-4.3,2s-1.6,3-1.6,5
			v3.7c0,2.1,0.6,3.8,1.7,5.1c1.1,1.3,2.6,2,4.5,2c1.4,0,2.5-0.2,3.4-0.6s1.5-0.9,1.9-1.5v-5.1h-5.4v-1.4h7v7H231.9z M249.1,54h-12
			V34h12v1.4h-10.3v7.5h9v1.4h-9v8.3h10.3V54z M266.8,54h-1.7c-0.3-0.3-0.6-0.8-0.7-1.4s-0.2-1.2-0.2-1.9v-1.8
			c0-1.2-0.4-2.2-1.2-2.9c-0.8-0.7-1.9-1.1-3.3-1.1h-5.5v9h-1.6v-20h6.7c2.1,0,3.8,0.5,4.9,1.4s1.7,2.3,1.7,4.1c0,1.1-0.3,2-0.9,2.9
			c-0.6,0.8-1.5,1.4-2.6,1.8c1.2,0.3,2.1,0.9,2.7,1.7c0.5,0.8,0.8,1.8,0.8,3v1.9c0,0.6,0.1,1.2,0.2,1.7s0.4,0.9,0.7,1.2V54z"/>
	</g>
	<g>
		<path class="st1" d="M298.3,49.1c-0.9,0-1.7,0.2-2.5,0.4c-1.6,0.5-3,1.3-4.3,2.3c-1.7,1.2-3.1,2.8-4.5,4.2
			c-0.1,0.1-0.2,0.3-0.2,0.5c-0.1,0.5,0.2,0.9,0.7,1.1c0.4,0.2,0.8,0.1,1.2-0.3c0.5-0.5,1-1.1,1.5-1.6c1-1,2.1-2,3.2-2.9
			c1-0.7,2.1-1.3,3.4-1.6c0.7-0.2,1.4-0.2,2.2-0.3v-2.1C298.6,49.1,298.5,49.1,298.3,49.1z"/>
		<path class="st2" d="M327.9,30.5l2.7,4.7c0,0,0.7,0.4,1.4,0s0.7-1.1,0.7-1.1l-2.7-5.4L327.9,30.5z"/>
		<g>
			<polygon class="st3" points="345.1,23.8 347,22.7 346.6,22 347,21.8 348.6,24.6 348.2,24.8 347.8,24.3 345.8,25.3 			"/>
			<path class="st4" d="M345.4,23.4l-0.7-0.4l-1.5,0.8l-1.1-0.4l-4.8,1.6l-0.2-0.2l0.2-0.1l-0.6-0.3l-2.9,3.2l0.8,1.7l-7.3,4.3
				l1.3,2.2l18.2-10.1L345.4,23.4z M336.4,28.1l-0.7-0.2l1.7-2.1l0.3,0.2l3.7-1.3l0.9,0.4L336.4,28.1z"/>
			<polygon class="st5" points="335.7,27.8 336.3,28.7 342.8,25.1 341.8,24.4 			"/>
			<path class="st5" d="M335.9,27.2L335.9,27.2c-0.1,0.1-0.2,0.1-0.2,0l-0.6-0.6c-0.1-0.1-0.1-0.2,0-0.2l0,0c0.1-0.1,0.2-0.1,0.2,0
				l0.6,0.6C336,27.1,336,27.1,335.9,27.2z"/>
			<path class="st5" d="M336.2,26.8L336.2,26.8c-0.1,0.1-0.2,0.1-0.2,0l-0.6-0.6c-0.1-0.1-0.1-0.2,0-0.2l0,0c0.1-0.1,0.2-0.1,0.2,0
				l0.6,0.6C336.3,26.7,336.3,26.7,336.2,26.8z"/>
			<path class="st5" d="M336.6,26.4L336.6,26.4c-0.1,0.1-0.2,0.1-0.2,0l-0.6-0.6c-0.1-0.1-0.1-0.2,0-0.2l0,0c0.1-0.1,0.2-0.1,0.2,0
				l0.6,0.6C336.6,26.3,336.6,26.4,336.6,26.4z"/>
			<path class="st5" d="M337,26L337,26c-0.1,0.1-0.2,0.1-0.2,0l-0.6-0.6c-0.1-0.1-0.1-0.2,0-0.2l0,0c0.1-0.1,0.2-0.1,0.2,0l0.6,0.6
				C337,25.9,337,25.9,337,26z"/>
		</g>
		<polygon class="st3" points="326.8,26.4 323.6,28.1 316.8,15.8 320,14.1 		"/>
		<circle class="st3" cx="292" cy="15.5" r="1.9"/>
		<circle class="st3" cx="316.2" cy="11" r="3.4"/>
		<circle class="st3" cx="296.1" cy="22.6" r="3.4"/>
		<circle class="st5" cx="292" cy="15.5" r="1.2"/>
		<g>
			<path class="st3" d="M284.1,35.9c-4.2,0-7.6,3.4-7.6,7.5c0,4.3,3.4,7.6,7.6,7.6c4.2,0,7.6-3.4,7.6-7.5
				C291.7,39.3,288.3,35.9,284.1,35.9z"/>
			<path class="st5" d="M312,5c0.6,0,1.1-0.5,1.1-1.1c0-0.6-0.5-1.1-1.1-1.1s-1.1,0.5-1.1,1.1C310.9,4.5,311.4,5,312,5z"/>
			<path class="st6" d="M309.4,13.3c0.5,0.9,1,1.7,1.5,2.5c0.7-0.4,1.4-0.8,2.1-1.2c-0.5-0.9-1-1.7-1.4-2.5
				C310.8,12.5,310.1,12.9,309.4,13.3z"/>
			<path class="st6" d="M293.4,15.5c0-0.8-0.6-1.5-1.4-1.5c-0.8,0-1.5,0.6-1.6,1.4c0,0.8,0.6,1.5,1.4,1.5
				C292.7,17,293.4,16.3,293.4,15.5z M292,16.5c-0.6,0-1-0.5-1-1c0-0.6,0.5-1,1-1c0.6,0,1,0.5,1,1C293,16,292.5,16.5,292,16.5z"/>
			<path class="st6" d="M319.8,14.3c-0.9,0.5-1.7,1-2.5,1.4c0,0,0,0,0,0L319.8,14.3C319.8,14.3,319.8,14.3,319.8,14.3z"/>
			<path class="st6" d="M296,25.7c1.7,0,3.1-1.3,3.1-3c0-1.7-1.4-3.1-3.1-3.1c-1.7,0-3.1,1.4-3.1,3.1C293,24.3,294.4,25.7,296,25.7z
				 M296.1,20.3c1.3,0,2.3,1.1,2.3,2.3c0,1.3-1.1,2.3-2.3,2.3c-1.3,0-2.3-1-2.3-2.3C293.8,21.3,294.9,20.3,296.1,20.3z"/>
			<path class="st6" d="M312,5c0.6,0,1.1-0.5,1.1-1.1c0-0.6-0.5-1.1-1.1-1c-0.6,0-1.1,0.5-1.1,1.1C310.9,4.5,311.4,4.9,312,5z
				 M312,3.1c0.4,0,0.7,0.3,0.7,0.7s-0.3,0.7-0.7,0.7c-0.4,0-0.7-0.3-0.7-0.7S311.6,3.1,312,3.1z"/>
			<path class="st6" d="M288.6,32.5c-1-0.6-1.9-1.1-2.9-1.7c-0.9,1.5-1.7,3-2.6,4.4c1.2,0.1,2.4,0.2,3.7,0.4
				C287.4,34.6,288,33.5,288.6,32.5z"/>
			<path class="st6" d="M284.2,36.6c-3.9,0-6.9,3-6.9,6.9c0,3.7,3.1,6.9,6.8,6.9c3.8,0,6.9-3.1,6.9-6.8
				C291,39.7,287.9,36.6,284.2,36.6z M284.1,49c-3.1,0-5.6-2.5-5.6-5.6c0-3.1,2.5-5.5,5.6-5.5c3.1,0,5.6,2.5,5.6,5.6
				C289.7,46.5,287.2,49,284.1,49z"/>
			<path class="st6" d="M313.2,11c0,1.7,1.4,3.1,3.1,3.1c1.7,0,3.1-1.4,3.1-3.1c0-1.7-1.4-3.1-3.1-3.1C314.6,7.9,313.2,9.3,313.2,11
				z M314.6,9.4c0.1-0.1,0.3-0.2,0.4-0.4c0.4-0.2,0.8-0.4,1.3-0.4c0.2,0,0.5,0.1,0.7,0.1c0.1,0,0.1,0.1,0.2,0.1
				c0.2,0.1,0.4,0.2,0.6,0.4c0.1,0.1,0.2,0.2,0.3,0.4c0.3,0.4,0.5,0.9,0.4,1.4c0,0.2,0,0.3-0.1,0.5c0,0.1-0.1,0.2-0.1,0.3
				c-0.1,0.2-0.2,0.5-0.4,0.7c-0.1,0.1-0.1,0.1-0.2,0.2c-0.1,0.1-0.2,0.2-0.3,0.3s-0.2,0.1-0.4,0.2c-0.1,0-0.2,0.1-0.3,0.1
				c-0.1,0-0.3,0.1-0.4,0.1c-0.1,0-0.2,0-0.2,0c-0.4,0-0.8-0.1-1.1-0.3c-0.1-0.1-0.2-0.2-0.4-0.2c-0.1-0.1-0.1-0.1-0.2-0.2
				c-0.2-0.2-0.4-0.5-0.5-0.7c-0.1-0.3-0.2-0.6-0.2-0.9c0-0.4,0.1-0.8,0.3-1.1C314.3,9.7,314.4,9.6,314.6,9.4z"/>
			<path class="st7" d="M289.7,53.6c0.5-0.1,1.2,0.1,1.2-0.7c0.1-1-0.6-0.9-1.3-0.9c0-0.7,0-1.3,0-1.9c0-0.5,0.1-0.9,0.5-1.3
				c1.6-1.7,2.2-3.7,2.1-6c0-0.3,0.1-0.6,0.2-0.9c0.7-1.2,1.4-2.5,2.1-3.7c0.3-0.6,0.7-1.1,1-1.7c0.2,0.1,0.2,0.1,0.4,0.2
				c0.8,0.4,1.2,0.3,1.6-0.5c0.2-0.3,0.4-0.7,0.6-1c0.4-0.7,0.3-1.1-0.4-1.6c-0.6-0.4-1.2-0.7-1.8-1.1c0.3-0.6,0.7-1.1,0.9-1.7
				c0.3-0.6,0.2-0.9-0.3-1.3c-0.1-0.1-0.3-0.2-0.4-0.3c0.6-1.1,1.2-2.1,1.8-3.1c0.1-0.2,0.2-0.3,0.4-0.4c0.7-0.5,1.2-1.2,1.5-2
				c0.1-0.2,0.1-0.4,0.3-0.5c0.8-0.5,1.7-1,2.6-1.5c0.1,0.2,0.3,0.4,0.4,0.6c0.2,0.5,0.6,0.6,1.1,0.3c0.5-0.3,0.6-0.6,0.3-1.1
				c-1.1-1.9-2.2-3.8-3.3-5.7c-0.3-0.6-0.6-0.7-1.1-0.3c-0.5,0.3-0.6,0.6-0.2,1.1c0.1,0.2,0.2,0.4,0.3,0.6c-0.8,0.4-1.5,0.9-2.3,1.3
				c-0.9-1.1-1.9-2.2-2.8-3.3c2.1-1.2,4-2.3,6-3.5c0.5,0.5,0.6,0.6,1.3,0c0.8-0.6-0.4-1-0.2-1.6l0,0l-0.7-1.1
				C300.8,9,301,8,300.1,8.3c-0.5,0.2-1.2,0.4-0.7,1.1c-2.2,1.3-4.3,2.5-6.5,3.7c-0.1,0.1-0.3,0.1-0.5,0.1c-1.7-0.5-3.5,1.2-2.7,3.3
				c0.8,1.9,1.4,3.9,2.1,5.9c0.1,0.2,0.1,0.4,0.1,0.6c-0.6,1-1.2,2-1.7,3c-1.2-0.6-1.4-0.5-2,0.6c-0.2,0.4-0.5,0.8-0.7,1.2
				c-0.4-0.2-0.7-0.4-1.1-0.6c-1.7-1-1.7-1-2.7,0.7c-0.6,1.1-0.6,1.3,0.5,2c0,0,0,0.1,0.1,0.1c-1,1.8-2.1,3.5-3.1,5.3
				c-0.1,0.2-0.4,0.5-0.7,0.6c-5,2.5-6.2,8.9-2.4,13c0.1,0.1,0.3,0.3,0.3,0.4c0,0.8,0,1.7,0,2.6c-0.6,0-1.2-0.1-1.3,0.7
				c-0.1,0.9,0.7,0.8,1.3,0.9c0,0.2,0,0.5,0,0.7h11.2C289.7,54,289.7,53.8,289.7,53.6z M296.1,19.6c1.7,0,3.1,1.4,3.1,3.1
				c0,1.7-1.4,3.1-3.1,3c-1.7,0-3-1.4-3-3.1C293,21,294.4,19.6,296.1,19.6z M291.9,16.9c-0.8,0-1.4-0.7-1.4-1.5
				c0-0.8,0.7-1.5,1.6-1.4c0.8,0,1.4,0.7,1.4,1.5C293.4,16.3,292.7,17,291.9,16.9z M285.7,30.7c1,0.6,1.9,1.1,2.9,1.7
				c-0.6,1.1-1.2,2.2-1.8,3.1c-1.3-0.1-2.4-0.2-3.7-0.4C284,33.7,284.8,32.3,285.7,30.7z M284.1,50.3c-3.7,0-6.8-3.1-6.8-6.9
				c0-3.9,3.1-6.9,6.9-6.9c3.7,0,6.8,3.1,6.8,6.9C290.9,47.2,287.9,50.3,284.1,50.3z"/>
			<path class="st7" d="M313.2,8.6c-0.4,0.8-1.2,1.1-1.9,1.5c-0.4,0.2-0.8,0.4-0.4,1c-0.7,0.4-1.4,0.8-2.1,1.2
				c-0.1-0.2-0.3-0.4-0.4-0.6c-0.2-0.5-0.6-0.6-1.1-0.3c-0.5,0.3-0.6,0.6-0.3,1.1c1.1,1.9,2.2,3.9,3.4,5.8c0.2,0.5,0.6,0.6,1.1,0.3
				c0.5-0.3,0.6-0.6,0.3-1.1c-0.1-0.2-0.2-0.4-0.3-0.6c0.4-0.2,0.7-0.5,1.1-0.7c0.4-0.2,0.8-0.7,1.3-0.2c0.1,0.1,0.3,0,0.5-0.1
				c0.2-0.1,0.4-0.2,0.6-0.3c0.4,0.4,0.4,1.2,1.1,0.9l1.2-0.7c0,0,2.5-1.5,2.5-1.4l1.3-0.7c0-0.3,0.1-0.6,0-0.7
				c-0.5-0.9-0.9-1.8-1.1-2.8c-0.4-2-2.2-3.1-4.5-2.8l-2.1,1.2C313.3,8.5,313.2,8.5,313.2,8.6z M310.9,15.8
				c-0.5-0.8-0.9-1.6-1.5-2.5c0.7-0.4,1.4-0.8,2.1-1.2c0.5,0.8,0.9,1.6,1.4,2.5C312.2,15,311.6,15.4,310.9,15.8z M316.2,8
				c1.7,0,3.1,1.4,3.1,3.1s-1.4,3.1-3.1,3.1c-1.7,0-3.1-1.4-3.1-3.1C313.2,9.3,314.6,7.9,316.2,8z"/>
			<path class="st3" d="M302.3,10.2c2.3-1.3,4.5-2.6,6.8-3.9c0.8-0.5,1.6-1.1,2.5-0.4c0.2,0.1,0.5,0.2,0.6,0.4
				c0.4,0.6,0.7,1.2,1,1.8c0.1,0.1,0.1,0.2,0,0.4l2.1-1.2c0,0-0.1,0-0.1,0c-0.3-0.6-0.7-1.2-1.1-1.8c-0.2-0.4-0.3-0.7-0.2-1.2
				c0.2-1.2-0.6-2.3-1.8-2.4c-1.2-0.1-2.2,0.7-2.2,2c0,0.4-0.2,0.6-0.5,0.8c-1.9,1.1-3.7,2.1-5.6,3.2c-0.8,0.5-1.7,1-2.4,1.4
				c0,0,0,0-0.1,0l0.7,1.1C302.1,10.3,302.2,10.3,302.3,10.2z M312,2.8c0.6,0,1.1,0.4,1.1,1c0,0.6-0.4,1.1-1.1,1.1
				c-0.6,0-1.1-0.5-1.1-1.1C310.9,3.3,311.4,2.8,312,2.8z"/>
			<path class="st8" d="M318.5,11.5c0,0.1-0.1,0.2-0.1,0.3C318.4,11.8,318.5,11.7,318.5,11.5z"/>
			<path class="st5" d="M284.1,37.8c-3.1,0-5.6,2.5-5.6,5.5c0,3.1,2.5,5.6,5.6,5.6c3.1,0,5.6-2.5,5.6-5.5
				C289.7,40.3,287.2,37.8,284.1,37.8z"/>
			<path class="st5" d="M296.1,24.9c1.3,0,2.3-1,2.3-2.3c0-1.3-1-2.3-2.3-2.3c-1.3,0-2.3,1-2.3,2.3
				C293.8,23.9,294.8,24.9,296.1,24.9z"/>
			<path d="M318.5,11.5c0-0.1,0.1-0.3,0.1-0.5c0-0.6-0.2-1.1-0.4-1.4c0.3,0.4,0.5,0.9,0.4,1.4C318.5,11.2,318.5,11.4,318.5,11.5z"/>
			<path d="M317.5,13c-0.1,0.1-0.2,0.1-0.4,0.2C317.2,13.1,317.3,13,317.5,13z"/>
			<path class="st5" d="M314.1,11.9c0.1,0.3,0.3,0.5,0.5,0.7c0.1,0.1,0.1,0.1,0.2,0.2c0.1,0.1,0.2,0.2,0.4,0.2
				c0.3,0.2,0.7,0.3,1.1,0.3c0.1,0,0.2,0,0.2,0c0.1,0,0.3,0,0.4-0.1c0.1,0,0.2-0.1,0.3-0.1c0.1-0.1,0.3-0.1,0.4-0.2
				c0.1-0.1,0.2-0.2,0.3-0.3c0.1-0.1,0.1-0.1,0.2-0.2c0.2-0.2,0.3-0.4,0.4-0.7c0-0.1,0.1-0.2,0.1-0.3c0-0.1,0.1-0.3,0.1-0.5
				c0-0.6-0.2-1.1-0.4-1.4c-0.1-0.1-0.2-0.2-0.3-0.4c-0.2-0.1-0.4-0.3-0.6-0.4c-0.1,0-0.1-0.1-0.2-0.1c-0.2-0.1-0.4-0.1-0.7-0.1
				c-0.5,0-0.9,0.1-1.3,0.4c-0.2,0.1-0.3,0.2-0.4,0.4s-0.2,0.3-0.3,0.4c-0.2,0.3-0.3,0.7-0.3,1.1C313.9,11.3,314,11.6,314.1,11.9z"
				/>
			<path d="M318.1,9.6c-0.1-0.1-0.2-0.2-0.3-0.4C317.9,9.4,318,9.5,318.1,9.6z"/>
			<path d="M317.8,12.7c-0.1,0.1-0.2,0.2-0.3,0.3C317.6,12.9,317.7,12.8,317.8,12.7z"/>
			<ellipse class="st7" cx="292" cy="15.5" rx="0.7" ry="0.7"/>
		</g>
		<circle class="st7" cx="296.1" cy="22.6" r="1.2"/>
		<polygon class="st7" points="300.6,16.9 308.6,12.4 311.3,16.9 302.9,21.7 		"/>
		<path class="st5" d="M305.1,19.9L305.1,19.9c-0.2,0.1-0.4,0-0.5-0.1l-1.9-3.2c-0.1-0.2,0-0.4,0.1-0.5l0,0c0.2-0.1,0.4,0,0.5,0.1
			l1.9,3.2C305.3,19.6,305.3,19.8,305.1,19.9z"/>
		<path class="st5" d="M306.3,19.3L306.3,19.3c-0.2,0.1-0.4,0-0.5-0.1l-1.9-3.2c-0.1-0.2,0-0.4,0.1-0.5l0,0c0.2-0.1,0.4,0,0.5,0.1
			l1.9,3.2C306.5,19,306.4,19.2,306.3,19.3z"/>
		<path class="st5" d="M307.5,18.6L307.5,18.6c-0.2,0.1-0.4,0-0.5-0.1l-1.9-3.2c-0.1-0.2,0-0.4,0.1-0.5l0,0c0.2-0.1,0.4,0,0.5,0.1
			l1.9,3.2C307.7,18.3,307.6,18.5,307.5,18.6z"/>
		<path class="st5" d="M308.6,18L308.6,18c-0.2,0.1-0.4,0-0.5-0.1l-1.9-3.2c-0.1-0.2,0-0.4,0.1-0.5l0,0c0.2-0.1,0.4,0,0.5,0.1
			l1.9,3.2C308.9,17.7,308.8,17.9,308.6,18z"/>
		<path class="st5" d="M320.1,20.6L320.1,20.6c0.1,0.1,0.3,0,0.4-0.1l1.1-2.4c0.1-0.1,0-0.3-0.1-0.4l0,0c-0.1-0.1-0.3,0-0.4,0.1
			l-1.1,2.4C319.9,20.4,319.9,20.6,320.1,20.6z"/>
		<path class="st5" d="M320.9,22.1L320.9,22.1c0.1,0.1,0.3,0,0.4-0.1l1.1-2.4c0.1-0.1,0-0.3-0.1-0.4l0,0c-0.1-0.1-0.3,0-0.4,0.1
			l-1.1,2.4C320.6,21.9,320.7,22.1,320.9,22.1z"/>
		<path class="st5" d="M321.6,23.6L321.6,23.6c0.1,0.1,0.3,0,0.4-0.1l1.1-2.4c0.1-0.1,0-0.3-0.1-0.4l0,0c-0.1-0.1-0.3,0-0.4,0.1
			l-1.1,2.4C321.4,23.4,321.5,23.5,321.6,23.6z"/>
		<path class="st5" d="M322.4,25.1L322.4,25.1c0.1,0.1,0.3,0,0.4-0.1l1.1-2.4c0.1-0.1,0-0.3-0.1-0.4l0,0c-0.1-0.1-0.3,0-0.4,0.1
			l-1.1,2.4C322.3,24.9,322.3,25,322.4,25.1z"/>
		<g>
			<path class="st5" d="M325,32.3c0.8,0,1.6-0.7,1.6-1.6c0-0.9-0.7-1.5-1.6-1.5c-0.8,0-1.5,0.7-1.5,1.5
				C323.5,31.6,324.2,32.3,325,32.3z"/>
			<path class="st3" d="M325,31.5c0.4,0,0.7-0.3,0.7-0.7c0-0.4-0.3-0.7-0.7-0.7c-0.4,0-0.6,0.3-0.6,0.7
				C324.3,31.2,324.7,31.5,325,31.5z"/>
			<path class="st5" d="M328.4,30.5c0.8,0,1.6-0.7,1.6-1.6c0-0.9-0.7-1.5-1.6-1.5c-0.8,0-1.5,0.7-1.5,1.5
				C326.9,29.7,327.6,30.4,328.4,30.5z"/>
			<path class="st6" d="M325,29.6c-0.7,0-1.2,0.6-1.3,1.2c0,0.7,0.6,1.2,1.2,1.2c0.7,0,1.2-0.5,1.2-1.2
				C326.3,30.1,325.7,29.6,325,29.6z M325,31.5c-0.4,0-0.6-0.3-0.6-0.7c0-0.4,0.3-0.7,0.7-0.6c0.4,0,0.6,0.3,0.6,0.7
				C325.7,31.2,325.4,31.5,325,31.5z"/>
			<path class="st6" d="M328.4,30.2c0.7,0,1.3-0.5,1.3-1.2c0-0.7-0.5-1.3-1.2-1.3c-0.7,0-1.2,0.5-1.3,1.2
				C327.2,29.6,327.7,30.2,328.4,30.2z M328.4,28.3c0.4,0,0.7,0.3,0.7,0.7c0,0.4-0.3,0.7-0.7,0.7c-0.3,0-0.7-0.3-0.7-0.7
				C327.7,28.6,328,28.3,328.4,28.3z"/>
			<path class="st7" d="M326.1,26.4c-0.6,0.4-1.2,0.7-1.9,1.1l0,0l-1,0.6c0,0.2-0.1,0.3,0,0.4c0.1,0.2,0.1,0.4,0,0.6
				c-0.1,0.1,0,0.3,0,0.4c0.2,0.3,0.1,0.5,0,0.7c-0.6,1.1-1.1,2.3-1.6,3.4c-0.1,0.3-0.2,0.6,0,0.9c0.9,1.2,1.9,2.5,2.9,3.7
				c0.3,0.4,0.6,0.4,1.1,0.1c0.4-0.2,0.3-0.5,0.2-0.8c-0.3-0.9-0.6-1.9-0.9-2.8c0-0.1-0.1-0.3-0.1-0.4c0.4-0.6,0.6-1.3,1.2-1.7
				c1-0.6,2-1.1,3-1.7c0.8-0.5,1.6-0.7,2.5-0.6c0.3,0,0.5,0.1,0.7,0.3c0.6,0.8,1.2,1.5,1.9,2.3c0.3,0.4,0.6,0.4,1,0.1
				c0.4-0.2,0.4-0.6,0.2-0.9c-0.5-1.4-1.1-2.7-1.6-4.1c-0.2-0.4-0.4-0.6-0.9-0.7c-1.2-0.1-2.4-0.2-3.5-0.4c-0.3,0-0.7,0-0.9-0.4
				c-0.1-0.1-0.3-0.1-0.4-0.2c-0.1-0.1-0.3-0.1-0.3-0.2c-0.2-0.3-0.4-0.4-0.7-0.3L326.1,26.4L326.1,26.4z M328.5,27.7
				c0.7,0,1.2,0.6,1.2,1.3c0,0.7-0.6,1.2-1.3,1.2c-0.7,0-1.2-0.6-1.2-1.3C327.2,28.2,327.8,27.7,328.5,27.7z M325,32
				c-0.7,0-1.2-0.6-1.2-1.2c0-0.7,0.6-1.2,1.3-1.2c0.7,0,1.2,0.6,1.2,1.2C326.2,31.5,325.7,32.1,325,32z"/>
			<path class="st3" d="M328.4,29.6c0.4,0,0.7-0.3,0.7-0.7c0-0.4-0.3-0.7-0.7-0.7c-0.4,0-0.6,0.3-0.6,0.7
				C327.7,29.3,328,29.6,328.4,29.6z"/>
			<path class="st7" d="M326.2,31.9l2.7,4.7c0,0,0.7,0.4,1.4,0s0.7-1.1,0.7-1.1l-2.7-5.4L326.2,31.9z"/>
		</g>
		<path class="st7" d="M294.9,55.8c0-1.4-0.4-1.7-1.7-1.7c-1.1,0-2.2,0-3.4,0c0,0,0,0,0-0.1h-11.2c0,0,0,0,0,0.1c-1.2,0-2.4,0-3.6,0
			c-1,0-1.5,0.4-1.5,1.5c0,0.9,0,2.3,0,3.2h21.5C294.9,58,294.9,56.6,294.9,55.8z"/>
		<g>
			<path class="st6" d="M312.5,40.3c-0.1-0.9-0.4-1.8-0.8-2.7c-0.5-1-1.2-1.7-2.3-2c-0.9-0.3-1.7-0.3-2.6-0.2
				c-0.8,0.1-1.6,0.3-2.3,0.6c-0.6,0.3-1.1,0.6-1.5,1.2c-0.7,0.9-0.7,1.9-0.6,3c0.2,0.9,0.7,1.6,1.4,2.1c0.9,0.6,1.8,0.8,2.8,0.8
				c0.7,0,1.4-0.1,2.1-0.2c1.3-0.3,2.6-0.7,3.8-1.2c0.1,0,0.1-0.1,0.1-0.1C312.6,41.1,312.6,40.7,312.5,40.3z"/>
			<path class="st1" d="M327.7,35.2c-0.1-0.6-0.8-1.2-1.6-0.7c-1.3,0.8-2.6,1.6-4,2.4c-2.2,1.3-4.4,2.4-6.7,3.5
				c-0.2,0.1-0.5,0.2-0.7,0.3c0-0.2,0-0.3-0.1-0.4c-0.2-1.2-0.5-2.4-1.1-3.5c-1.1-2.2-2.9-3.4-5.3-3.6c-0.7-0.1-1.4-0.1-2.2,0.1
				c-1.1,0.1-2.1,0.5-3.1,1c-1.1,0.6-2,1.5-2.5,2.7c-0.4,1.1-0.6,2.2-0.4,3.3c0.2,1.4,0.9,2.6,2,3.4c0.7,0.5,1.4,0.9,2.3,1.1
				c1.3,0.4,2.7,0.4,4,0.2c1.2-0.2,2.3-0.5,3.4-0.9c0.2-0.1,0.3-0.1,0.5-0.2c0,0.1-0.1,0.2-0.1,0.4c-0.6,1.9-1.7,3.3-3.6,4.2
				c-1.3,0.6-2.7,0.8-4.2,0.9c-1.2,0-2.3-0.1-3.5-0.2c-0.7-0.1-1.8-0.1-2.6-0.1l0.1,2.1c0.5,0,1.2,0,1.7,0c0.9,0.1,1.8,0.2,2.8,0.2
				c0.9,0.1,1.9,0.1,2.8-0.1c1.1-0.1,2.1-0.4,3.2-0.8c1.1-0.4,2.2-1,3.1-1.9c1.5-1.6,2.3-3.4,2.6-5.6c0-0.1,0-0.1,0.1-0.2
				c0.3-0.1,0.6-0.3,1-0.4c4-1.8,7.8-3.9,11.5-6.2C327.6,36.1,327.8,35.7,327.7,35.2z M312.5,41.6c-1.2,0.5-2.5,0.9-3.8,1.2
				c-0.7,0.1-1.4,0.2-2.1,0.2c-1,0-2-0.2-2.8-0.8c-0.7-0.5-1.3-1.2-1.4-2.1c-0.2-1.1-0.1-2.1,0.6-3c0.4-0.5,0.9-0.9,1.5-1.2
				c0.7-0.4,1.5-0.6,2.3-0.6c0.9-0.1,1.7,0,2.6,0.2c1.1,0.3,1.8,1.1,2.3,2c0.4,0.8,0.7,1.7,0.8,2.7c0.1,0.4,0.1,0.8,0.1,1.2
				C312.6,41.6,312.6,41.6,312.5,41.6z"/>
		</g>
		<polygon class="st4" points="327.2,33.6 328.5,35.8 326.6,37.1 325.2,34.8 		"/>
	</g>
</g>
</svg>
