<?xml version="1.0" encoding="utf-8"?>
<!-- Generator: Adobe Illustrator 22.0.1, SVG Export Plug-In . SVG Version: 6.00 Build 0)  -->
<svg version="1.1" id="Calque_1" xmlns="http://www.w3.org/2000/svg" xmlns:xlink="http://www.w3.org/1999/xlink" x="0px" y="0px"
	 viewBox="0 0 331.7 285.2" style="enable-background:new 0 0 331.7 285.2;" xml:space="preserve">
<style type="text/css">
	.st0{fill:#EDEDED;}
	.st1{fill:#FCC92D;}
	.st2{fill:#F49738;}
	.st3{fill:#9D9C9B;}
	.st4{fill:#726F6F;}
	.st5{fill:#535251;}
	.st6{fill:none;}
	.st7{fill:#F7A82C;}
	.st8{fill:#FFFFFF;}
	.st9{fill:#56535B;}
</style>
<g>
	<path class="st0" d="M250.9,146.5l15.2-32.4l28.1-16.6C270,51.5,220,19.8,166.7,19.8c-78.4,0-142,67.4-142,150.5
		c0,22.9,4.8,44.6,13.5,64h8.5v2.1H32.5v26.8h262.9v-24.5l-132-2.2v-2.1h131.8c8.6-19.4,13.5-41.1,13.5-64c0-12.5-1.5-27.4-4.2-39
		L284,143.6L250.9,146.5z"/>
	<g>
		<path class="st1" d="M142.7,199.9c-3.1,0.1-6.2,0.6-9.1,1.6c-5.7,1.9-10.7,4.8-15.4,8.4c-6,4.5-11.1,10-16.3,15.3
			c-0.5,0.5-0.8,1.2-0.9,1.9c-0.2,1.7,0.8,3.4,2.4,4.1c1.4,0.6,3,0.4,4.3-1c1.8-1.9,3.7-3.8,5.5-5.7c3.6-3.7,7.4-7.3,11.6-10.3
			c3.7-2.6,7.7-4.7,12.1-5.8c2.6-0.7,5.2-0.9,7.8-1v-7.6C144.1,199.9,143.4,199.9,142.7,199.9z"/>
		<path class="st2" d="M249.7,132.8l9.8,17.1c0,0,2.4,1.3,5,0.1s2.7-3.9,2.7-3.9l-9.8-19.6L249.7,132.8z"/>
		<g>
			<polygon class="st3" points="311.6,108.6 318.7,104.7 317.1,102.2 318.6,101.4 324.3,111.4 322.9,112.1 321.4,110.4 314,114.2 
							"/>
			<path class="st4" d="M312.8,107.3l-2.5-1.3l-5.4,2.9l-4.1-1.6l-17.4,5.8l-0.6-0.9l0.8-0.5l-2.3-1.1l-10.6,11.6l2.8,6.3L247,143.9
				l4.7,8.1l65.7-36.5L312.8,107.3z M280.1,124l-2.4-0.9l6.3-7.5l1,0.9l13.3-4.7l3.2,1.4L280.1,124z"/>
			<polygon class="st5" points="277.7,123.1 279.7,126.3 303.2,113.3 299.7,110.9 			"/>
			<path class="st5" d="M278.5,121L278.5,121c-0.2,0.2-0.6,0.2-0.8,0l-2.3-2.2c-0.2-0.2-0.2-0.6,0-0.8l0,0c0.2-0.2,0.6-0.2,0.8,0
				l2.3,2.2C278.7,120.4,278.7,120.7,278.5,121z"/>
			<path class="st5" d="M279.6,119.6L279.6,119.6c-0.2,0.2-0.6,0.2-0.8,0l-2.3-2.2c-0.2-0.2-0.2-0.6,0-0.8l0,0
				c0.2-0.2,0.6-0.2,0.8,0l2.3,2.2C279.8,119,279.8,119.3,279.6,119.6z"/>
			<path class="st5" d="M280.9,118.2L280.9,118.2c-0.2,0.2-0.6,0.2-0.8,0l-2.3-2.2c-0.2-0.2-0.2-0.6,0-0.8l0,0
				c0.2-0.2,0.6-0.2,0.8,0l2.3,2.2C281.1,117.6,281.1,118,280.9,118.2z"/>
			<path class="st5" d="M282.3,116.7L282.3,116.7c-0.2,0.2-0.6,0.2-0.8,0l-2.3-2.2c-0.2-0.2-0.2-0.6,0-0.8v0c0.2-0.2,0.6-0.2,0.8,0
				l2.3,2.2C282.5,116.1,282.6,116.4,282.3,116.7z"/>
		</g>
		<polygon class="st3" points="245.7,118 234.2,124.2 209.7,79.8 221.1,73.6 		"/>
		<circle class="st3" cx="120" cy="78.6" r="6.7"/>
		<circle class="st3" cx="207.5" cy="62.7" r="12.3"/>
		<circle class="st3" cx="134.9" cy="104.5" r="12.3"/>
		<circle class="st5" cx="120" cy="78.6" r="4.5"/>
		<g>
			<path class="st3" d="M91.7,152.2c-15.1,0-27.4,12.2-27.4,27.1c0.1,15.4,12.1,27.4,27.4,27.4c15.1,0,27.3-12.1,27.4-27.1
				C119.1,164.4,106.9,152.2,91.7,152.2z"/>
			<path class="st5" d="M192.2,40.8c2.1,0,3.9-1.7,3.9-3.9c0-2.1-1.7-3.9-3.9-3.9s-3.9,1.7-3.9,3.9
				C188.4,39.1,190.1,40.8,192.2,40.8z"/>
			<path class="st6" d="M183,70.8c1.8,3.2,3.5,6,5.3,9c2.6-1.5,5-2.9,7.5-4.3c-1.8-3.1-3.5-6-5.2-9C187.9,67.9,185.6,69.3,183,70.8z
				"/>
			<path class="st6" d="M125.3,78.8c0.1-2.9-2.2-5.4-5.1-5.5c-3-0.1-5.5,2.2-5.6,5.2c-0.1,2.9,2.3,5.3,5.2,5.4
				C122.8,84,125.2,81.7,125.3,78.8z M120,82.4c-2.1,0-3.7-1.7-3.7-3.7c0-2.1,1.7-3.7,3.7-3.7c2.1,0,3.7,1.7,3.7,3.7
				C123.7,80.7,122.1,82.4,120,82.4z"/>
			<path class="st6" d="M220.3,74.4c-3.1,1.8-6,3.5-9,5.2c0,0,0,0,0,0.1L220.3,74.4C220.3,74.5,220.3,74.5,220.3,74.4z"/>
			<path class="st6" d="M134.7,115.6c6.1,0.1,11.2-4.8,11.3-10.9c0.1-6-5.1-11.2-11.1-11.2c-6,0-11,5-11,11
				C123.9,110.5,128.7,115.5,134.7,115.6z M135,96.2c4.6,0,8.3,3.8,8.3,8.4c0,4.6-3.8,8.3-8.4,8.2c-4.7,0-8.3-3.7-8.2-8.4
				C126.7,99.8,130.4,96.1,135,96.2z"/>
			<path class="st6" d="M192.2,40.8c2.2,0,3.9-1.7,3.8-4c-0.1-2.1-1.8-3.8-3.9-3.7c-2,0-3.8,1.8-3.8,3.9
				C188.4,39,190.2,40.8,192.2,40.8z M192.2,34.2c1.5,0,2.7,1.2,2.7,2.7c0,1.5-1.2,2.7-2.7,2.7c-1.5,0-2.7-1.2-2.7-2.7
				C189.5,35.4,190.7,34.2,192.2,34.2z"/>
			<path class="st6" d="M107.9,139.9c-3.6-2.1-7-4.1-10.6-6.1c-3.2,5.5-6.2,10.8-9.2,16c4.5,0.5,8.8,0.9,13.3,1.4
				C103.5,147.6,105.7,143.8,107.9,139.9z"/>
			<path class="st6" d="M91.9,154.7c-13.9,0-24.9,10.9-25,24.8c-0.1,13.5,11,24.7,24.6,24.7c13.7,0,24.8-11,24.9-24.6
				C116.5,166,105.3,154.7,91.9,154.7z M91.7,199.5c-11.2,0-20.1-8.9-20.2-20.2c-0.1-11,9-20,20.2-20c11.2,0,20.2,9,20.2,20.2
				C111.8,190.6,102.8,199.5,91.7,199.5z"/>
			<path class="st6" d="M196.4,62.5c-0.1,6.1,4.9,11.2,11.1,11.2c6.1,0,11-4.9,11-11c0-6-4.9-11-11-11.1
				C201.6,51.5,196.5,56.5,196.4,62.5z M201.5,56.9c0.5-0.5,1-0.9,1.6-1.3c1.4-0.9,3-1.4,4.7-1.3c0.9,0,1.7,0.2,2.5,0.4
				c0.3,0.1,0.5,0.2,0.8,0.3c0.7,0.3,1.4,0.8,2,1.3c0.4,0.4,0.8,0.8,1.2,1.3c1.1,1.4,1.7,3.2,1.6,5.2c0,0.6-0.1,1.1-0.2,1.7
				c-0.1,0.4-0.2,0.7-0.3,1.1c-0.3,0.9-0.8,1.7-1.4,2.4c-0.2,0.2-0.4,0.5-0.6,0.7c-0.4,0.4-0.8,0.7-1.2,1c-0.4,0.3-0.9,0.5-1.4,0.7
				c-0.3,0.1-0.6,0.2-1,0.3c-0.5,0.1-1,0.2-1.5,0.2c-0.3,0-0.6,0-0.9,0c-1.4,0-2.8-0.4-3.9-1.1c-0.5-0.3-0.9-0.6-1.3-0.9
				c-0.2-0.2-0.4-0.4-0.6-0.6c-0.7-0.8-1.3-1.7-1.7-2.7s-0.6-2.1-0.6-3.3c0-1.4,0.4-2.8,1.1-3.9C200.6,57.9,201,57.4,201.5,56.9z"/>
			<path class="st7" d="M112,216.2c1.9-0.3,4.2,0.4,4.5-2.4c0.4-3.5-2.2-3.4-4.6-3.4c0-2.4,0.1-4.6,0-6.7c-0.1-1.9,0.5-3.2,1.8-4.7
				c5.6-6.2,7.9-13.5,7.5-21.8c0-1.1,0.2-2.3,0.7-3.2c2.5-4.5,5.1-8.9,7.7-13.4c1.2-2,2.4-4,3.6-6.1c0.6,0.3,0.9,0.5,1.3,0.7
				c2.8,1.5,4.2,1.2,5.8-1.7c0.7-1.2,1.4-2.4,2.1-3.6c1.4-2.6,1-4-1.5-5.6c-2.2-1.3-4.3-2.5-6.6-3.8c1.2-2.1,2.4-4,3.4-6
				c1.2-2.1,0.8-3.4-1.1-4.7c-0.5-0.3-1-0.7-1.6-1.1c2.2-3.8,4.3-7.5,6.5-11.2c0.3-0.6,0.9-1.1,1.4-1.4c2.5-1.8,4.2-4.2,5.3-7.1
				c0.2-0.6,0.5-1.4,1-1.7c3-1.8,6.1-3.5,9.3-5.4c0.5,0.9,1,1.5,1.4,2.3c0.9,1.7,2.2,2,3.8,1.1c1.7-1,2.2-2.2,1.1-4
				c-4-6.9-8-13.8-12-20.7c-1.2-2.1-2.2-2.4-4.1-1.2c-1.8,1-2,2.3-0.9,4c0.4,0.6,0.7,1.3,1.2,2.2c-2.8,1.6-5.4,3.1-8.2,4.7
				c-3.4-4-6.7-7.8-10-11.8c7.4-4.3,14.5-8.4,21.6-12.5c1.8,1.9,2.1,2.1,4.8,0c2.9-2.2-1.3-3.5-0.8-5.6c0,0,0.1-0.1,0.1-0.1
				l-2.5-4.1c-2.1-0.8-1.3-4.6-4.4-3.4c-1.7,0.7-4.2,1.3-2.4,4.1c-7.9,4.6-15.6,9-23.3,13.4c-0.5,0.3-1.2,0.4-1.7,0.3
				c-6.2-1.9-12.8,4.3-9.8,12c2.8,7,5.1,14.1,7.6,21.2c0.2,0.6,0.4,1.5,0.2,2c-2,3.7-4.2,7.3-6.2,10.8c-4.3-2-4.9-1.9-7.2,2.1
				c-0.8,1.4-1.7,2.9-2.6,4.5c-1.4-0.8-2.7-1.5-3.9-2.2c-6.2-3.6-6.3-3.5-9.8,2.6c-2.3,4.1-2.2,4.7,1.8,7.3c0.1,0.1,0.1,0.3,0.2,0.5
				c-3.7,6.4-7.4,12.8-11.2,19.2c-0.5,0.9-1.5,1.8-2.4,2.2c-18,8.9-22.3,32.1-8.7,46.7c0.5,0.5,1.1,1.1,1.2,1.6
				c0.1,3,0.1,6.1,0.1,9.2c-2.2,0-4.4-0.3-4.6,2.5c-0.3,3.4,2.4,3,4.7,3.2c0,0.9-0.1,1.7-0.1,2.5h40.5
				C111.9,217.7,111.9,217,112,216.2z M134.9,93.4c6,0,11.2,5.2,11.1,11.2c-0.1,6.1-5.2,11-11.3,10.9c-6-0.1-10.8-5.1-10.8-11.2
				C124,98.4,128.9,93.4,134.9,93.4z M119.8,83.9c-2.9-0.1-5.2-2.5-5.2-5.4c0.1-3,2.5-5.3,5.6-5.2c2.9,0.1,5.2,2.6,5.1,5.5
				C125.2,81.7,122.8,84,119.8,83.9z M97.3,133.7c3.6,2.1,7,4,10.6,6.1c-2.3,4-4.5,7.8-6.5,11.2c-4.6-0.5-8.8-0.9-13.3-1.4
				C91.1,144.5,94.2,139.2,97.3,133.7z M91.5,204.1C78,204.1,66.9,193,67,179.5c0.1-13.9,11.1-24.8,25-24.8
				c13.4,0,24.5,11.3,24.5,24.8C116.4,193.2,105.3,204.1,91.5,204.1z"/>
			<path class="st7" d="M196.7,53.8c-1.4,2.9-4.5,3.8-7,5.4c-1.4,0.9-2.9,1.6-1.4,3.6c-2.6,1.5-5,2.9-7.4,4.3
				c-0.5-0.8-1-1.5-1.4-2.3c-0.9-1.7-2.1-2-3.8-1.1c-1.7,1-2.2,2.2-1.1,4c4.1,7,8.1,13.9,12.1,20.9c0.9,1.7,2.1,2,3.8,1.1
				c1.8-1,2.2-2.2,1.1-4c-0.4-0.7-0.8-1.4-1.2-2.3c1.5-0.9,2.7-1.8,4.1-2.4c1.5-0.7,2.9-2.5,4.8-0.6c0.2,0.2,1.1-0.1,1.7-0.3
				c0.8-0.3,1.5-0.7,2.2-1.1c1.3,1.4,1.5,4.2,4.1,3.1l4.2-2.4c0,0,9-5.3,9-5.2l4.6-2.7c0.1-1,0.3-2-0.1-2.7
				c-1.7-3.2-3.2-6.4-4.1-10.1c-1.6-7.3-8.1-11-16.3-10l-7.6,4.2C196.8,53.4,196.8,53.6,196.7,53.8z M188.2,79.8
				c-1.7-3-3.4-5.8-5.3-9c2.6-1.5,5-2.9,7.5-4.3c1.8,3,3.4,5.9,5.2,9C193.2,76.9,190.8,78.3,188.2,79.8z M207.6,51.6
				c6.1,0.1,11,5,11,11.1c0,6.1-4.9,11-11,11c-6.2,0-11.2-5-11.1-11.2C196.5,56.5,201.6,51.5,207.6,51.6z"/>
			<path class="st3" d="M157.4,59.7c8.2-4.7,16.4-9.4,24.5-14.2c2.9-1.7,5.6-3.8,9-1.4c0.7,0.5,1.8,0.7,2.2,1.3
				c1.4,2,2.6,4.2,3.7,6.4c0.2,0.3,0.2,0.9,0.1,1.3l7.6-4.2c-0.1,0-0.3,0-0.4,0c-1.2-2.1-2.5-4.3-3.8-6.5c-0.8-1.3-1.2-2.5-0.8-4.3
				c0.9-4.3-2.1-8.2-6.4-8.7c-4.2-0.5-8,2.7-8.1,7.2c0,1.5-0.7,2.1-1.8,2.8c-6.7,3.8-13.4,7.7-20.2,11.6c-3,1.8-6.1,3.5-8.7,5
				c-0.1,0-0.1,0-0.2-0.1l2.5,4.1C156.8,60.1,157.1,59.9,157.4,59.7z M192.2,33.1c2.1,0,3.8,1.6,3.9,3.7c0.1,2.2-1.6,4-3.8,4
				c-2,0-3.8-1.8-3.8-3.8C188.4,34.9,190.1,33.1,192.2,33.1z"/>
			<path class="st8" d="M215.6,64.5c-0.1,0.4-0.2,0.7-0.3,1.1C215.4,65.3,215.5,64.9,215.6,64.5z"/>
			<path class="st5" d="M91.7,159.3c-11.1,0-20.2,9-20.2,20c0.1,11.3,8.9,20.2,20.2,20.2c11.1,0,20.1-8.9,20.2-20
				C111.9,168.3,102.9,159.3,91.7,159.3z"/>
			<path class="st5" d="M134.9,112.8c4.6,0,8.4-3.6,8.4-8.2c0-4.6-3.7-8.4-8.3-8.4c-4.6,0-8.3,3.6-8.4,8.2
				C126.6,109.1,130.2,112.8,134.9,112.8z"/>
			<path d="M215.6,64.5c0.1-0.5,0.2-1.1,0.2-1.7c0-2-0.6-3.8-1.6-5.2c1.1,1.4,1.7,3.2,1.6,5.2C215.8,63.4,215.7,64,215.6,64.5z"/>
			<path d="M212,69.7c-0.4,0.3-0.9,0.5-1.4,0.7C211.1,70.2,211.5,70,212,69.7z"/>
			<path class="st5" d="M199.7,65.7c0.4,1,1,1.9,1.7,2.7c0.2,0.2,0.4,0.4,0.6,0.6c0.4,0.3,0.8,0.7,1.3,0.9c1.2,0.7,2.5,1.1,3.9,1.1
				c0.3,0,0.6,0,0.9,0c0.5,0,1-0.1,1.5-0.2c0.3-0.1,0.6-0.2,1-0.3c0.5-0.2,1-0.4,1.4-0.7c0.4-0.3,0.9-0.6,1.2-1
				c0.2-0.2,0.4-0.4,0.6-0.7c0.6-0.7,1.1-1.5,1.4-2.4c0.1-0.4,0.2-0.7,0.3-1.1c0.1-0.5,0.2-1.1,0.2-1.7c0-2-0.6-3.8-1.6-5.2
				c-0.4-0.5-0.8-0.9-1.2-1.3c-0.6-0.5-1.3-1-2-1.3c-0.2-0.1-0.5-0.2-0.8-0.3c-0.8-0.3-1.6-0.4-2.5-0.4c-1.7-0.1-3.3,0.4-4.7,1.3
				c-0.6,0.4-1.1,0.8-1.6,1.3c-0.5,0.5-0.9,1-1.2,1.6c-0.7,1.2-1.1,2.5-1.1,3.9C199.1,63.6,199.3,64.7,199.7,65.7z"/>
			<path d="M214.2,57.6c-0.4-0.5-0.8-0.9-1.2-1.3C213.4,56.7,213.8,57.2,214.2,57.6z"/>
			<path d="M213.2,68.7c-0.4,0.4-0.8,0.7-1.2,1C212.4,69.4,212.8,69.1,213.2,68.7z"/>
			<ellipse transform="matrix(0.3827 -0.9239 0.9239 0.3827 1.4338 159.3975)" class="st7" cx="120" cy="78.6" rx="2.5" ry="2.5"/>
		</g>
		<circle class="st7" cx="134.9" cy="104.5" r="4.5"/>
		<polygon class="st7" points="151.1,83.9 180,67.6 189.6,83.9 159.3,101 		"/>
		<path class="st5" d="M167.4,94.7L167.4,94.7c-0.6,0.3-1.4,0.1-1.7-0.5l-6.7-11.7c-0.3-0.6-0.1-1.4,0.5-1.7l0,0
			c0.6-0.3,1.4-0.1,1.7,0.5l6.7,11.7C168.2,93.6,168,94.4,167.4,94.7z"/>
		<path class="st5" d="M171.6,92.4L171.6,92.4c-0.6,0.3-1.4,0.1-1.7-0.5l-6.7-11.7c-0.3-0.6-0.1-1.4,0.5-1.7l0,0
			c0.6-0.3,1.4-0.1,1.7,0.5l6.7,11.7C172.4,91.3,172.2,92.1,171.6,92.4z"/>
		<path class="st5" d="M175.9,90L175.9,90c-0.6,0.3-1.4,0.1-1.7-0.5l-6.7-11.7c-0.3-0.6-0.1-1.4,0.5-1.7l0,0
			c0.6-0.3,1.4-0.1,1.7,0.5l6.7,11.7C176.7,88.9,176.5,89.6,175.9,90z"/>
		<path class="st5" d="M180.2,87.7L180.2,87.7c-0.6,0.3-1.4,0.1-1.7-0.5l-6.7-11.7c-0.3-0.6-0.1-1.4,0.5-1.7l0,0
			c0.6-0.3,1.4-0.1,1.7,0.5l6.7,11.7C181,86.5,180.8,87.3,180.2,87.7z"/>
		<path class="st5" d="M221.3,97.3L221.3,97.3c0.5,0.2,1.1,0,1.3-0.5l3.9-8.7c0.2-0.5,0-1.1-0.5-1.3l0,0c-0.5-0.2-1.1,0-1.3,0.5
			l-3.9,8.7C220.6,96.5,220.8,97.1,221.3,97.3z"/>
		<path class="st5" d="M224.2,102.6L224.2,102.6c0.5,0.2,1.1,0,1.3-0.5l3.9-8.7c0.2-0.5,0-1.1-0.5-1.3l0,0c-0.5-0.2-1.1,0-1.3,0.5
			l-3.9,8.7C223.5,101.8,223.7,102.4,224.2,102.6z"/>
		<path class="st5" d="M227,107.9L227,107.9c0.5,0.2,1.1,0,1.3-0.5l3.9-8.7c0.2-0.5,0-1.1-0.5-1.3l0,0c-0.5-0.2-1.1,0-1.3,0.5
			l-3.9,8.7C226.3,107.1,226.5,107.7,227,107.9z"/>
		<path class="st5" d="M229.9,113.3L229.9,113.3c0.5,0.2,1.1,0,1.3-0.5l3.9-8.7c0.2-0.5,0-1.1-0.5-1.3h0c-0.5-0.2-1.1,0-1.3,0.5
			l-3.9,8.7C229.2,112.5,229.4,113.1,229.9,113.3z"/>
		<g>
			<path class="st9" d="M43.9,253.3v6h-4.1v-17.5h6.7c2.1,0,3.7,0.5,4.9,1.6c1.2,1.1,1.8,2.4,1.8,4.2c0,1.7-0.6,3.1-1.8,4.2
				c-1.2,1.1-2.9,1.6-4.9,1.6H43.9z M43.9,250.2h2.6c0.9,0,1.6-0.2,2-0.7c0.5-0.5,0.7-1.1,0.7-1.9c0-0.8-0.2-1.4-0.7-1.9
				c-0.5-0.5-1.1-0.7-2-0.7h-2.6V250.2z"/>
			<path class="st9" d="M68.2,251.8H62v4.4h7.4v3.1H58v-17.5h11.4v3.1H62v3.8h6.2V251.8z"/>
			<path class="st9" d="M84.4,251.8h-6.2v4.4h7.4v3.1H74.1v-17.5h11.4v3.1h-7.4v3.8h6.2V251.8z"/>
			<path class="st9" d="M94.4,252.6v6.7h-4.1v-17.5h6.1c2,0,3.6,0.5,4.8,1.4s1.8,2.2,1.8,3.8c0,0.9-0.2,1.7-0.7,2.3
				c-0.5,0.6-1.2,1.2-2.1,1.6c1.1,0.3,1.8,0.8,2.3,1.5c0.5,0.7,0.7,1.6,0.7,2.6v1.1c0,0.5,0.1,1,0.2,1.6c0.1,0.6,0.4,1,0.7,1.2v0.2
				h-4.2c-0.3-0.2-0.5-0.7-0.6-1.3c-0.1-0.6-0.1-1.2-0.1-1.8v-1.1c0-0.8-0.2-1.5-0.7-1.9c-0.4-0.4-1.1-0.7-1.9-0.7H94.4z
				 M94.4,249.5h2.1c0.8,0,1.4-0.2,1.9-0.6c0.4-0.4,0.6-0.9,0.6-1.6c0-0.7-0.2-1.3-0.7-1.7c-0.4-0.4-1.1-0.7-1.9-0.7h-2V249.5z"/>
			<path class="st9" d="M112.7,259.3h-4v-17.5h4V259.3z"/>
			<path class="st9" d="M132.8,259.3h-4l-6.4-11l-0.1,0v11h-4.1v-17.5h4.1l6.4,11l0.1,0v-10.9h4V259.3z"/>
			<path class="st9" d="M151.8,256.9c-0.6,0.7-1.5,1.4-2.6,1.9c-1.1,0.5-2.5,0.8-4.3,0.8c-2.2,0-3.9-0.7-5.3-2c-1.4-1.3-2-3-2-5.2
				v-3.6c0-2.1,0.7-3.8,2-5.2c1.3-1.3,3-2,5.1-2c2.2,0,3.9,0.5,5.1,1.5c1.1,1,1.7,2.4,1.6,4.1l0,0.1h-3.8c0-0.9-0.2-1.5-0.7-1.9
				c-0.5-0.4-1.1-0.6-2.1-0.6c-0.9,0-1.7,0.4-2.3,1.1c-0.6,0.7-0.9,1.7-0.9,2.9v3.7c0,1.2,0.3,2.2,0.9,2.9c0.6,0.7,1.4,1.1,2.4,1.1
				c0.7,0,1.3-0.1,1.8-0.2c0.4-0.1,0.8-0.3,1-0.5v-3.1h-3.1V250h7.1V256.9z"/>
		</g>
		<g>
			<path class="st5" d="M239,139.5c3,0.1,5.7-2.5,5.7-5.6c0-3.2-2.5-5.5-5.7-5.4c-2.9,0.1-5.4,2.6-5.4,5.5
				C233.6,136.7,236.3,139.4,239,139.5z"/>
			<path class="st3" d="M239.1,136.4c1.3,0,2.5-1.1,2.5-2.4c0-1.4-1.1-2.4-2.5-2.4c-1.3,0-2.3,1.1-2.3,2.4
				C236.7,135.2,237.9,136.4,239.1,136.4z"/>
			<path class="st5" d="M251.3,132.7c3,0.1,5.7-2.5,5.7-5.6c0-3.2-2.5-5.5-5.7-5.4c-2.9,0.1-5.4,2.6-5.4,5.5
				C245.9,129.9,248.5,132.6,251.3,132.7z"/>
			<path class="st6" d="M239.2,129.5c-2.5,0-4.5,2-4.6,4.4c0,2.4,2,4.5,4.5,4.5c2.5,0,4.5-1.9,4.5-4.4
				C243.7,131.6,241.7,129.6,239.2,129.5z M239.1,136.4c-1.3-0.1-2.3-1.1-2.3-2.4c0-1.4,1.1-2.4,2.5-2.3c1.3,0.1,2.3,1.2,2.3,2.4
				C241.6,135.4,240.5,136.4,239.1,136.4z"/>
			<path class="st6" d="M251.3,131.6c2.5,0.1,4.6-1.9,4.7-4.3c0.1-2.4-1.9-4.6-4.3-4.7c-2.5-0.1-4.5,1.9-4.6,4.3
				C246.9,129.5,248.8,131.6,251.3,131.6z M251.4,124.8c1.4,0,2.5,1,2.5,2.4c0,1.3-1.2,2.5-2.5,2.4c-1.2,0-2.4-1.2-2.4-2.4
				C249,125.9,250.1,124.8,251.4,124.8z"/>
			<path class="st7" d="M243,118.2c-2.3,1.3-4.5,2.5-7,3.9c0,0,0,0,0,0l-3.6,2.1c-0.1,0.6-0.3,1.2-0.1,1.6c0.3,0.8,0.5,1.4,0,2.3
				c-0.2,0.4-0.1,1.1,0.1,1.5c0.7,1,0.3,1.7-0.1,2.6c-2,4.1-4,8.3-5.9,12.4c-0.5,1.1-0.7,2.1,0.1,3.1c3.4,4.4,6.8,8.9,10.3,13.3
				c1,1.3,2.2,1.4,3.9,0.4c1.3-0.7,1.1-1.8,0.7-2.9c-1.1-3.3-2.3-6.7-3.4-10c-0.1-0.4-0.5-1.1-0.3-1.3c1.4-2.1,2-4.8,4.4-6.2
				c3.6-2,7.3-3.9,10.8-6.1c2.8-1.8,5.7-2.5,9-2.2c1.1,0.1,1.8,0.4,2.5,1.2c2.2,2.8,4.5,5.5,6.7,8.2c1.2,1.4,2,1.4,3.5,0.3
				c1.3-0.9,1.5-2,0.9-3.4c-1.9-4.9-3.8-9.9-5.6-14.9c-0.6-1.5-1.4-2.2-3.1-2.4c-4.3-0.4-8.6-0.9-12.8-1.3c-1.2-0.1-2.4-0.1-3.1-1.6
				c-0.2-0.4-1-0.5-1.5-0.8c-0.4-0.2-1-0.3-1.1-0.6c-0.6-1.2-1.4-1.5-2.5-1L243,118.2C243,118.2,243,118.2,243,118.2z M251.6,122.7
				c2.4,0.1,4.4,2.2,4.3,4.7c-0.1,2.4-2.2,4.4-4.7,4.3c-2.5-0.1-4.4-2.1-4.3-4.6C247.1,124.5,249.1,122.6,251.6,122.7z M239.1,138.5
				c-2.5,0-4.5-2.1-4.5-4.5c0-2.5,2.1-4.4,4.6-4.4c2.5,0,4.5,2,4.4,4.5C243.6,136.6,241.6,138.5,239.1,138.5z"/>
			<path class="st3" d="M251.4,129.6c1.3,0,2.5-1.1,2.5-2.4c0-1.4-1.1-2.4-2.5-2.4c-1.3,0-2.3,1.1-2.3,2.4
				C249,128.4,250.2,129.6,251.4,129.6z"/>
			<path class="st7" d="M243.6,138l9.8,17.1c0,0,2.4,1.3,5,0.1c2.6-1.2,2.7-3.9,2.7-3.9l-9.8-19.6L243.6,138z"/>
		</g>
		<path class="st7" d="M130.4,224.2c0-5-1.3-6.3-6.3-6.3c-4,0-8.1,0-12.3,0c0-0.1,0-0.1,0-0.2H71.4c0,0.1,0,0.1,0,0.2
			c-4.5,0-8.8,0-13.1,0c-3.7,0-5.3,1.6-5.3,5.3c0,3.1,0,8.2,0,11.6h77.5C130.4,231.9,130.4,227,130.4,224.2z"/>
		<g>
			<polygon class="st5" points="233.4,243 229.6,253.6 237.3,253.6 233.5,243 			"/>
			<polygon class="st5" points="196.1,243 192.2,253.6 199.9,253.6 196.1,243 			"/>
			<path class="st5" d="M291,246.2c0-1.3-0.4-2.3-1.2-3c-0.8-0.7-2.1-1.1-3.8-1.1h-5v8.1h4.8c1.8,0,3.1-0.4,4-1.1
				C290.6,248.4,291,247.4,291,246.2z"/>
			<path class="st5" d="M301.5,237.6c0-2.6-1.1-3.6-3.7-3.7c-5.3,0-261.7,0-265,0c-3.3,0-4.1,0.9-4.2,4.2c0,7.6,0,15.2,0,22.8
				c0,4.1,0.6,4.7,4.8,4.7c87.4,0,174.7,0,262.1,0c0.8,0,1.5,0,2.3,0c2.5-0.1,3.6-1.1,3.7-3.7C301.6,253.7,301.6,245.6,301.5,237.6z
				 M157.8,261.2H34.4v-22.5h123.4V261.2z M184.6,260.7H183v-16.8l-0.1,0l-7.2,16.8h-1.2l-7.3-17.2l-0.1,0v17.2h-1.6v-20h2.2
				l7.4,17.6h0.1l7.4-17.6h2V260.7z M202.5,260.7l-2-5.6h-8.8l-2,5.6H188l7.4-20h1.6l7.3,20H202.5z M222,260.7h-1.6L209,243.5
				l-0.1,0v17.1h-1.6v-20h1.6l11.4,17.1l0.1,0v-17.1h1.6V260.7z M239.8,260.7l-2-5.6H229l-2,5.6h-1.7l7.4-20h1.6l7.3,20H239.8z
				 M258.7,258c-0.4,0.7-1.3,1.4-2.4,2c-1.2,0.6-2.7,0.9-4.5,0.9c-2.3,0-4.2-0.8-5.6-2.4c-1.5-1.6-2.2-3.6-2.2-6.2v-3.7
				c0-2.5,0.7-4.5,2.1-6c1.4-1.6,3.3-2.3,5.5-2.3c2.2,0,3.9,0.6,5.2,1.7c1.3,1.1,1.9,2.6,1.9,4.4l0,0.1H257c0-1.4-0.5-2.5-1.4-3.4
				c-1-0.9-2.3-1.3-4.1-1.3c-1.8,0-3.2,0.7-4.3,2c-1.1,1.3-1.6,3-1.6,5v3.7c0,2.1,0.6,3.8,1.7,5.1c1.1,1.3,2.6,2,4.5,2
				c1.4,0,2.5-0.2,3.4-0.6c0.9-0.4,1.5-0.9,1.9-1.5v-5.1h-5.4v-1.4h7V258z M275.8,260.7h-12v-20h12v1.4h-10.3v7.5h9v1.4h-9v8.3h10.4
				V260.7z M293.5,260.7h-1.7c-0.3-0.3-0.6-0.8-0.7-1.4c-0.1-0.6-0.2-1.2-0.2-1.9v-1.8c0-1.2-0.4-2.2-1.2-2.9
				c-0.8-0.7-1.9-1.1-3.3-1.1h-5.5v9h-1.6v-20h6.7c2.1,0,3.8,0.5,4.9,1.4c1.1,0.9,1.7,2.3,1.7,4.1c0,1.1-0.3,2-0.9,2.9
				c-0.6,0.8-1.5,1.4-2.6,1.8c1.2,0.3,2.1,0.9,2.7,1.7s0.8,1.8,0.8,3v1.9c0,0.6,0.1,1.2,0.2,1.7c0.1,0.5,0.4,0.9,0.7,1.2V260.7z"/>
		</g>
		<g>
			<path class="st6" d="M194.1,168c-0.5-3.3-1.4-6.6-3-9.6c-1.9-3.5-4.5-6.1-8.4-7.3c-3.1-1-6.2-1.2-9.4-0.9c-2.9,0.3-5.7,1-8.3,2.2
				c-2.1,1-4,2.3-5.4,4.2c-2.4,3.2-2.7,6.9-2.1,10.7c0.6,3.3,2.5,5.8,5.2,7.7c3.1,2.2,6.5,3,10.2,3c2.5,0,5.1-0.3,7.5-0.9
				c4.7-1,9.2-2.6,13.7-4.2c0.3-0.1,0.3-0.3,0.3-0.5C194.4,171,194.3,169.5,194.1,168z"/>
			<path class="st1" d="M248.9,149.9c-0.5-2.3-2.9-4.4-5.8-2.6c-4.7,3-9.4,5.9-14.3,8.7c-7.9,4.6-16,8.8-24.3,12.6
				c-0.9,0.4-1.7,0.8-2.6,1.2c-0.1-0.6-0.1-1.1-0.2-1.6c-0.6-4.4-1.8-8.7-3.9-12.7c-4.1-7.8-10.4-12.1-19.2-12.9
				c-2.6-0.2-5.2-0.2-7.9,0.2c-3.9,0.5-7.6,1.7-11,3.7c-4,2.3-7.1,5.4-8.9,9.7c-1.6,3.9-2,7.9-1.3,12c0.9,5,3.1,9.2,7.2,12.3
				c2.4,1.9,5.2,3.3,8.2,4.1c4.8,1.4,9.6,1.4,14.4,0.8c4.2-0.6,8.2-1.7,12.1-3.1c0.6-0.2,1.2-0.4,1.9-0.7c-0.1,0.5-0.2,0.9-0.4,1.3
				c-2.2,6.8-6.3,12-12.9,15c-4.8,2.2-9.9,3-15.1,3.1c-4.2,0.1-8.4-0.3-12.6-0.6c-2.6-0.2-6.6-0.4-9.3-0.4l0.4,7.7
				c1.8,0,4.5,0,6.3,0.1c3.3,0.2,6.6,0.6,10,0.9c3.4,0.3,6.8,0.2,10.2-0.2c3.9-0.5,7.7-1.4,11.4-2.8c4.1-1.6,7.9-3.7,11.1-6.9
				c5.5-5.6,8.3-12.4,9.2-20.2c0-0.3,0.1-0.4,0.4-0.6c1.2-0.5,2.3-1,3.5-1.5c14.4-6.4,28.2-13.9,41.4-22.5
				C248.6,153,249.3,151.6,248.9,149.9z M194.2,172.9c-4.5,1.7-9,3.3-13.7,4.2c-2.5,0.5-5,0.8-7.5,0.9c-3.7,0.1-7.2-0.8-10.2-3
				c-2.7-1.9-4.6-4.4-5.2-7.7c-0.6-3.8-0.3-7.5,2.1-10.7c1.4-1.9,3.3-3.2,5.4-4.2c2.6-1.3,5.4-2,8.3-2.2c3.2-0.3,6.3-0.1,9.4,0.9
				c3.9,1.2,6.5,3.8,8.4,7.3c1.6,3,2.5,6.2,3,9.6c0.2,1.5,0.3,3,0.5,4.4C194.6,172.7,194.5,172.8,194.2,172.9z"/>
		</g>
		<polygon class="st4" points="247,143.9 251.7,152.1 245,156.7 239.9,148.4 		"/>
	</g>
	<path class="st7" d="M214.3,77.9"/>
	<g>
		<path class="st5" d="M166.4,24.1c52.4,0,98,31.3,121.2,77.3l6.7-3.8C269.9,49.1,221.8,16,166.4,16C86.3,16,21.4,85.2,21.4,170.5
			c0,22.7,4.6,44.3,12.9,63.7h8.4C33.9,215,29,193.4,29,170.5C29,89.7,90.5,24.1,166.4,24.1z"/>
		<path class="st5" d="M299.6,134.1c2.8,11.6,4.3,23.9,4.3,36.4c0,22.8-4.9,44.5-13.7,63.7h8.4c8.3-19.4,12.9-41,12.9-63.7
			c0-14-1.8-27.5-5-40.4L299.6,134.1z"/>
	</g>
</g>
</svg>
