<?xml version="1.0" encoding="utf-8"?>
<!-- Generator: Adobe Illustrator 22.0.1, SVG Export Plug-In . SVG Version: 6.00 Build 0)  -->
<svg version="1.1" id="Calque_1" xmlns="http://www.w3.org/2000/svg" xmlns:xlink="http://www.w3.org/1999/xlink" x="0px" y="0px"
	 viewBox="0 0 331.7 285.2" style="enable-background:new 0 0 331.7 285.2;" xml:space="preserve">
<style type="text/css">
	.st0{fill:#FCC92D;}
	.st1{fill:#F49738;}
	.st2{fill:#9D9C9B;}
	.st3{fill:#726F6F;}
	.st4{fill:#535251;}
	.st5{fill:none;}
	.st6{fill:#F7A82C;}
	.st7{fill:#FFFFFF;}
	.st8{fill:#56535B;}
</style>
<g>
	<path class="st0" d="M133.9,199.4c-3.1,0.1-6.2,0.6-9.1,1.6c-5.7,1.9-10.7,4.8-15.4,8.4c-6,4.5-11.1,10-16.3,15.3
		c-0.5,0.5-0.8,1.2-0.9,1.9c-0.2,1.7,0.8,3.4,2.4,4.1c1.4,0.6,3,0.4,4.3-1c1.8-1.9,3.7-3.8,5.5-5.7c3.6-3.7,7.4-7.3,11.6-10.3
		c3.7-2.6,7.7-4.7,12.1-5.8c2.6-0.7,5.2-0.9,7.8-1v-7.6C135.2,199.4,134.6,199.4,133.9,199.4z"/>
	<path class="st1" d="M240.9,132.3l9.8,17.1c0,0,2.4,1.3,5,0.1c2.6-1.2,2.7-3.9,2.7-3.9l-9.8-19.6L240.9,132.3z"/>
	<g>
		<polygon class="st2" points="302.8,108.1 309.8,104.2 308.3,101.7 309.8,100.9 315.4,110.9 314,111.6 312.6,109.9 305.2,113.7 		
			"/>
		<path class="st3" d="M304,106.8l-2.5-1.3l-5.4,2.9l-4.1-1.6l-17.4,5.8l-0.6-0.9l0.8-0.5l-2.3-1.1l-10.6,11.6l2.8,6.3l-26.5,15.4
			l4.7,8.1l65.7-36.5L304,106.8z M271.3,123.5l-2.4-0.9l6.3-7.5l1,0.9l13.3-4.7l3.2,1.4L271.3,123.5z"/>
		<polygon class="st4" points="268.9,122.6 270.9,125.8 294.4,112.8 290.9,110.4 		"/>
		<path class="st4" d="M269.7,120.5L269.7,120.5c-0.2,0.2-0.6,0.2-0.8,0l-2.3-2.2c-0.2-0.2-0.2-0.6,0-0.8v0c0.2-0.2,0.6-0.2,0.8,0
			l2.3,2.2C269.9,119.9,269.9,120.2,269.7,120.5z"/>
		<path class="st4" d="M270.8,119.1L270.8,119.1c-0.2,0.2-0.6,0.2-0.8,0l-2.3-2.2c-0.2-0.2-0.2-0.6,0-0.8v0c0.2-0.2,0.6-0.2,0.8,0
			l2.3,2.2C271,118.5,271,118.8,270.8,119.1z"/>
		<path class="st4" d="M272.1,117.7L272.1,117.7c-0.2,0.2-0.6,0.2-0.8,0l-2.3-2.2c-0.2-0.2-0.2-0.6,0-0.8l0,0c0.2-0.2,0.6-0.2,0.8,0
			l2.3,2.2C272.3,117.1,272.3,117.5,272.1,117.7z"/>
		<path class="st4" d="M273.5,116.2L273.5,116.2c-0.2,0.2-0.6,0.2-0.8,0l-2.3-2.2c-0.2-0.2-0.2-0.6,0-0.8l0,0c0.2-0.2,0.6-0.2,0.8,0
			l2.3,2.2C273.7,115.6,273.7,115.9,273.5,116.2z"/>
	</g>
	<polygon class="st2" points="236.9,117.5 225.4,123.7 200.8,79.3 212.3,73.1 	"/>
	<circle class="st2" cx="111.2" cy="78.1" r="6.7"/>
	<circle class="st2" cx="198.6" cy="62.2" r="12.3"/>
	<circle class="st2" cx="126.1" cy="104" r="12.3"/>
	<circle class="st4" cx="111.2" cy="78.1" r="4.5"/>
	<g>
		<path class="st2" d="M82.8,151.7c-15.1,0-27.4,12.2-27.4,27.1c0.1,15.4,12.1,27.4,27.4,27.4c15.1,0,27.3-12.1,27.4-27.1
			C110.2,163.9,98,151.7,82.8,151.7z"/>
		<path class="st4" d="M183.4,40.3c2.1,0,3.9-1.7,3.9-3.9c0-2.1-1.7-3.9-3.9-3.9s-3.9,1.7-3.9,3.9C179.5,38.5,181.3,40.3,183.4,40.3
			z"/>
		<path class="st5" d="M174.1,70.3c1.8,3.2,3.5,6,5.3,9c2.6-1.5,5-2.9,7.5-4.3c-1.8-3.1-3.5-6-5.2-9
			C179.1,67.4,176.7,68.8,174.1,70.3z"/>
		<path class="st5" d="M116.5,78.3c0.1-2.9-2.2-5.4-5.1-5.5c-3-0.1-5.5,2.2-5.6,5.2c-0.1,2.9,2.3,5.3,5.2,5.4
			C113.9,83.5,116.4,81.2,116.5,78.3z M111.2,81.9c-2.1,0-3.7-1.7-3.7-3.7c0-2.1,1.7-3.7,3.7-3.7c2.1,0,3.7,1.7,3.7,3.7
			C114.9,80.2,113.2,81.9,111.2,81.9z"/>
		<path class="st5" d="M211.5,73.9c-3.1,1.8-6,3.5-9,5.2c0,0,0,0,0,0.1L211.5,73.9C211.5,74,211.5,74,211.5,73.9z"/>
		<path class="st5" d="M125.9,115.1c6.1,0.1,11.2-4.8,11.3-10.9c0.1-6-5.1-11.2-11.1-11.2c-6,0-11,5-11,11
			C115,110,119.9,115,125.9,115.1z M126.2,95.7c4.6,0,8.3,3.8,8.3,8.4c0,4.6-3.8,8.3-8.4,8.2c-4.7,0-8.3-3.7-8.2-8.4
			C117.9,99.3,121.6,95.6,126.2,95.7z"/>
		<path class="st5" d="M183.4,40.3c2.2,0,3.9-1.7,3.8-4c-0.1-2.1-1.8-3.8-3.9-3.7c-2,0-3.8,1.8-3.8,3.9
			C179.6,38.5,181.3,40.2,183.4,40.3z M183.4,33.7c1.5,0,2.7,1.2,2.7,2.7c0,1.5-1.2,2.7-2.7,2.7c-1.5,0-2.7-1.2-2.7-2.7
			C180.7,34.9,181.9,33.7,183.4,33.7z"/>
		<path class="st5" d="M99.1,139.4c-3.6-2.1-7-4.1-10.6-6.1c-3.2,5.5-6.2,10.8-9.2,16c4.5,0.5,8.8,0.9,13.3,1.4
			C94.6,147.1,96.8,143.3,99.1,139.4z"/>
		<path class="st5" d="M83.1,154.2c-13.9,0-24.9,10.9-25,24.8c-0.1,13.5,11,24.7,24.6,24.7c13.7,0,24.8-11,24.9-24.6
			C107.6,165.5,96.5,154.2,83.1,154.2z M82.8,199c-11.2,0-20.1-8.9-20.2-20.2c-0.1-11,9-20,20.2-20c11.2,0,20.2,9,20.2,20.2
			C103,190.1,94,199,82.8,199z"/>
		<path class="st5" d="M187.6,62c-0.1,6.1,4.9,11.2,11.1,11.2c6.1,0,11-4.9,11-11c0-6-4.9-11-11-11.1C192.8,51,187.7,56,187.6,62z
			 M192.7,56.4c0.5-0.5,1-0.9,1.6-1.3c1.4-0.9,3-1.4,4.7-1.3c0.9,0,1.7,0.2,2.5,0.4c0.3,0.1,0.5,0.2,0.8,0.3c0.7,0.3,1.4,0.8,2,1.3
			c0.4,0.4,0.8,0.8,1.2,1.3c1.1,1.4,1.7,3.2,1.6,5.2c0,0.6-0.1,1.1-0.2,1.7c-0.1,0.4-0.2,0.7-0.3,1.1c-0.3,0.9-0.8,1.7-1.4,2.4
			c-0.2,0.2-0.4,0.5-0.6,0.7c-0.4,0.4-0.8,0.7-1.2,1c-0.4,0.3-0.9,0.5-1.4,0.7c-0.3,0.1-0.6,0.2-1,0.3c-0.5,0.1-1,0.2-1.5,0.2
			c-0.3,0-0.6,0-0.9,0c-1.4,0-2.8-0.4-3.9-1.1c-0.5-0.3-0.9-0.6-1.3-0.9c-0.2-0.2-0.4-0.4-0.6-0.6c-0.7-0.8-1.3-1.7-1.7-2.7
			c-0.4-1-0.6-2.1-0.6-3.3c0-1.4,0.4-2.8,1.1-3.9C191.8,57.4,192.2,56.9,192.7,56.4z"/>
		<path class="st6" d="M103.1,215.7c1.9-0.3,4.2,0.4,4.5-2.4c0.4-3.5-2.2-3.4-4.6-3.4c0-2.4,0.1-4.6,0-6.7c-0.1-1.9,0.5-3.2,1.8-4.7
			c5.6-6.2,7.9-13.5,7.5-21.8c0-1.1,0.2-2.3,0.7-3.2c2.5-4.5,5.1-8.9,7.7-13.4c1.2-2,2.4-4,3.6-6.1c0.6,0.3,0.9,0.5,1.3,0.7
			c2.8,1.5,4.2,1.2,5.8-1.7c0.7-1.2,1.4-2.4,2.1-3.6c1.4-2.6,1-4-1.5-5.6c-2.2-1.3-4.3-2.5-6.6-3.8c1.2-2.1,2.4-4,3.4-6
			c1.2-2.1,0.8-3.4-1.1-4.7c-0.5-0.3-1-0.7-1.6-1.1c2.2-3.8,4.3-7.5,6.5-11.2c0.3-0.6,0.9-1.1,1.4-1.4c2.5-1.8,4.2-4.2,5.3-7.1
			c0.2-0.6,0.5-1.4,1-1.7c3-1.8,6.1-3.5,9.3-5.4c0.5,0.9,1,1.5,1.4,2.3c0.9,1.7,2.2,2,3.8,1.1c1.7-1,2.2-2.2,1.1-4
			c-4-6.9-8-13.8-12-20.7c-1.2-2.1-2.2-2.4-4.1-1.2c-1.8,1-2,2.3-0.9,4c0.4,0.6,0.7,1.3,1.2,2.2c-2.8,1.6-5.4,3.1-8.2,4.7
			c-3.4-4-6.7-7.8-10-11.8c7.4-4.3,14.5-8.4,21.6-12.5c1.8,1.9,2.1,2.1,4.8,0c2.9-2.2-1.3-3.5-0.8-5.6c0,0,0.1-0.1,0.1-0.1l-2.5-4.1
			c-2.1-0.8-1.3-4.6-4.4-3.4c-1.7,0.7-4.2,1.3-2.4,4.1c-7.9,4.6-15.6,9-23.3,13.4c-0.5,0.3-1.2,0.4-1.7,0.3
			c-6.2-1.9-12.8,4.3-9.8,12c2.8,7,5.1,14.1,7.6,21.2c0.2,0.6,0.4,1.5,0.2,2c-2,3.7-4.2,7.3-6.2,10.8c-4.3-2-4.9-1.9-7.2,2.1
			c-0.8,1.4-1.7,2.9-2.6,4.5c-1.4-0.8-2.7-1.5-3.9-2.2c-6.2-3.6-6.3-3.5-9.8,2.6c-2.3,4.1-2.2,4.7,1.8,7.3c0.1,0.1,0.1,0.3,0.2,0.5
			c-3.7,6.4-7.4,12.8-11.2,19.2c-0.5,0.9-1.5,1.8-2.4,2.2c-18,8.9-22.3,32.1-8.7,46.7c0.5,0.5,1.1,1.1,1.2,1.6
			c0.1,3,0.1,6.1,0.1,9.2c-2.2,0-4.4-0.3-4.6,2.5c-0.3,3.4,2.4,3,4.7,3.2c0,0.9-0.1,1.7-0.1,2.5H103
			C103.1,217.2,103.1,216.5,103.1,215.7z M126.1,92.9c6,0,11.2,5.2,11.1,11.2c-0.1,6.1-5.2,11-11.3,10.9c-6-0.1-10.8-5.1-10.8-11.2
			C115.1,97.9,120.1,92.9,126.1,92.9z M111,83.4c-2.9-0.1-5.2-2.5-5.2-5.4c0.1-3,2.5-5.3,5.6-5.2c2.9,0.1,5.2,2.6,5.1,5.5
			C116.4,81.2,113.9,83.5,111,83.4z M88.5,133.2c3.6,2.1,7,4,10.6,6.1c-2.3,4-4.5,7.8-6.5,11.2c-4.6-0.5-8.8-0.9-13.3-1.4
			C82.3,144,85.3,138.7,88.5,133.2z M82.7,203.6c-13.5,0-24.6-11.1-24.6-24.7c0.1-13.9,11.1-24.8,25-24.8
			c13.4,0,24.5,11.3,24.5,24.8C107.5,192.6,96.5,203.6,82.7,203.6z"/>
		<path class="st6" d="M187.8,53.3c-1.4,2.9-4.5,3.8-7,5.4c-1.4,0.9-2.9,1.6-1.4,3.6c-2.6,1.5-5,2.9-7.4,4.3c-0.5-0.8-1-1.5-1.4-2.3
			c-0.9-1.7-2.1-2-3.8-1.1c-1.7,1-2.2,2.2-1.1,4c4.1,7,8.1,13.9,12.1,20.9c0.9,1.7,2.1,2,3.8,1.1c1.8-1,2.2-2.2,1.1-4
			c-0.4-0.7-0.8-1.4-1.2-2.3c1.5-0.9,2.7-1.8,4.1-2.4c1.5-0.7,2.9-2.5,4.8-0.6c0.2,0.2,1.1-0.1,1.7-0.3c0.8-0.3,1.5-0.7,2.2-1.1
			c1.3,1.4,1.5,4.2,4.1,3.1l4.2-2.4c0,0,9-5.3,9-5.2l4.6-2.7c0.1-1,0.3-2-0.1-2.7c-1.7-3.2-3.2-6.4-4.1-10.1
			c-1.6-7.3-8.1-11-16.3-10l-7.6,4.2C188,52.9,187.9,53.1,187.8,53.3z M179.4,79.3c-1.7-3-3.4-5.8-5.3-9c2.6-1.5,5-2.9,7.5-4.3
			c1.8,3,3.4,5.9,5.2,9C184.3,76.4,182,77.8,179.4,79.3z M198.7,51.1c6.1,0.1,11,5,11,11.1c0,6.1-4.9,11-11,11
			c-6.2,0-11.2-5-11.1-11.2C187.7,56,192.8,51,198.7,51.1z"/>
		<path class="st2" d="M148.5,59.2c8.2-4.7,16.4-9.4,24.5-14.2c2.9-1.7,5.6-3.8,9-1.4c0.7,0.5,1.8,0.7,2.2,1.3
			c1.4,2,2.6,4.2,3.7,6.4c0.2,0.3,0.2,0.9,0.1,1.3l7.6-4.2c-0.1,0-0.3,0-0.4,0c-1.2-2.1-2.5-4.3-3.8-6.5c-0.8-1.3-1.2-2.5-0.8-4.3
			c0.9-4.3-2.1-8.2-6.4-8.7c-4.2-0.5-8,2.7-8.1,7.2c0,1.5-0.7,2.1-1.8,2.8c-6.7,3.8-13.4,7.7-20.2,11.6c-3,1.8-6.1,3.5-8.7,5
			c-0.1,0-0.1,0-0.2-0.1l2.5,4.1C147.9,59.6,148.2,59.4,148.5,59.2z M183.3,32.6c2.1,0,3.8,1.6,3.9,3.7c0.1,2.2-1.6,4-3.8,4
			c-2,0-3.8-1.8-3.8-3.8C179.6,34.4,181.3,32.6,183.3,32.6z"/>
		<path class="st7" d="M206.7,64c-0.1,0.4-0.2,0.7-0.3,1.1C206.5,64.8,206.7,64.4,206.7,64z"/>
		<path class="st4" d="M82.8,158.8c-11.1,0-20.2,9-20.2,20c0.1,11.3,8.9,20.2,20.2,20.2c11.1,0,20.1-8.9,20.2-20
			C103,167.8,94,158.8,82.8,158.8z"/>
		<path class="st4" d="M126,112.3c4.6,0,8.4-3.6,8.4-8.2c0-4.6-3.7-8.4-8.3-8.4c-4.6,0-8.3,3.6-8.4,8.2
			C117.7,108.6,121.4,112.3,126,112.3z"/>
		<path d="M206.7,64c0.1-0.5,0.2-1.1,0.2-1.7c0-2-0.6-3.8-1.6-5.2c1.1,1.4,1.7,3.2,1.6,5.2C206.9,62.9,206.9,63.5,206.7,64z"/>
		<path d="M203.2,69.2c-0.4,0.3-0.9,0.5-1.4,0.7C202.2,69.7,202.7,69.4,203.2,69.2z"/>
		<path class="st4" d="M190.9,65.2c0.4,1,1,1.9,1.7,2.7c0.2,0.2,0.4,0.4,0.6,0.6c0.4,0.3,0.8,0.7,1.3,0.9c1.2,0.7,2.5,1.1,3.9,1.1
			c0.3,0,0.6,0,0.9,0c0.5,0,1-0.1,1.5-0.2c0.3-0.1,0.6-0.2,1-0.3c0.5-0.2,1-0.4,1.4-0.7c0.4-0.3,0.9-0.6,1.2-1
			c0.2-0.2,0.4-0.4,0.6-0.7c0.6-0.7,1.1-1.5,1.4-2.4c0.1-0.4,0.2-0.7,0.3-1.1c0.1-0.5,0.2-1.1,0.2-1.7c0-2-0.6-3.8-1.6-5.2
			c-0.4-0.5-0.8-0.9-1.2-1.3c-0.6-0.5-1.3-1-2-1.3c-0.2-0.1-0.5-0.2-0.8-0.3c-0.8-0.3-1.6-0.4-2.5-0.4c-1.7-0.1-3.3,0.4-4.7,1.3
			c-0.6,0.4-1.1,0.8-1.6,1.3c-0.5,0.5-0.9,1-1.2,1.6c-0.7,1.2-1.1,2.5-1.1,3.9C190.3,63.1,190.5,64.2,190.9,65.2z"/>
		<path d="M205.3,57.1c-0.4-0.5-0.8-0.9-1.2-1.3C204.6,56.2,205,56.7,205.3,57.1z"/>
		<path d="M204.4,68.2c-0.4,0.4-0.8,0.7-1.2,1C203.6,68.9,204,68.6,204.4,68.2z"/>
		
			<ellipse transform="matrix(0.3827 -0.9239 0.9239 0.3827 -3.5474 150.9312)" class="st6" cx="111.2" cy="78.1" rx="2.5" ry="2.5"/>
	</g>
	<circle class="st6" cx="126.1" cy="104" r="4.5"/>
	<polygon class="st6" points="142.3,83.4 171.1,67.1 180.8,83.4 150.5,100.5 	"/>
	<path class="st4" d="M158.6,94.2L158.6,94.2c-0.6,0.3-1.4,0.1-1.7-0.5l-6.7-11.7c-0.3-0.6-0.1-1.4,0.5-1.7l0,0
		c0.6-0.3,1.4-0.1,1.7,0.5l6.7,11.7C159.4,93.1,159.2,93.9,158.6,94.2z"/>
	<path class="st4" d="M162.8,91.9L162.8,91.9c-0.6,0.3-1.4,0.1-1.7-0.5l-6.7-11.7c-0.3-0.6-0.1-1.4,0.5-1.7l0,0
		c0.6-0.3,1.4-0.1,1.7,0.5l6.7,11.7C163.6,90.8,163.4,91.6,162.8,91.9z"/>
	<path class="st4" d="M167.1,89.5L167.1,89.5c-0.6,0.3-1.4,0.1-1.7-0.5l-6.7-11.7c-0.3-0.6-0.1-1.4,0.5-1.7h0
		c0.6-0.3,1.4-0.1,1.7,0.5l6.7,11.7C167.9,88.4,167.7,89.1,167.1,89.5z"/>
	<path class="st4" d="M171.3,87.2L171.3,87.2c-0.6,0.3-1.4,0.1-1.7-0.5L162.9,75c-0.3-0.6-0.1-1.4,0.5-1.7h0
		c0.6-0.3,1.4-0.1,1.7,0.5l6.7,11.7C172.1,86,171.9,86.8,171.3,87.2z"/>
	<path class="st4" d="M212.5,96.8L212.5,96.8c0.5,0.2,1.1,0,1.3-0.5l3.9-8.7c0.2-0.5,0-1.1-0.5-1.3l0,0c-0.5-0.2-1.1,0-1.3,0.5
		l-3.9,8.7C211.8,96,212,96.6,212.5,96.8z"/>
	<path class="st4" d="M215.4,102.1L215.4,102.1c0.5,0.2,1.1,0,1.3-0.5l3.9-8.7c0.2-0.5,0-1.1-0.5-1.3l0,0c-0.5-0.2-1.1,0-1.3,0.5
		l-3.9,8.7C214.6,101.3,214.9,101.9,215.4,102.1z"/>
	<path class="st4" d="M218.2,107.4L218.2,107.4c0.5,0.2,1.1,0,1.3-0.5l3.9-8.7c0.2-0.5,0-1.1-0.5-1.3l0,0c-0.5-0.2-1.1,0-1.3,0.5
		l-3.9,8.7C217.5,106.6,217.7,107.2,218.2,107.4z"/>
	<path class="st4" d="M221.1,112.8L221.1,112.8c0.5,0.2,1.1,0,1.3-0.5l3.9-8.7c0.2-0.5,0-1.1-0.5-1.3l0,0c-0.5-0.2-1.1,0-1.3,0.5
		l-3.9,8.7C220.4,112,220.6,112.5,221.1,112.8z"/>
	<g>
		<path class="st8" d="M35.1,252.8v6H31v-17.5h6.7c2.1,0,3.7,0.5,4.9,1.6c1.2,1.1,1.8,2.4,1.8,4.2c0,1.7-0.6,3.1-1.8,4.2
			c-1.2,1.1-2.9,1.6-4.9,1.6H35.1z M35.1,249.7h2.6c0.9,0,1.6-0.2,2-0.7s0.7-1.1,0.7-1.9c0-0.8-0.2-1.4-0.7-1.9
			c-0.5-0.5-1.1-0.7-2-0.7h-2.6V249.7z"/>
		<path class="st8" d="M59.4,251.3h-6.2v4.4h7.4v3.1H49.2v-17.5h11.4v3.1h-7.4v3.8h6.2V251.3z"/>
		<path class="st8" d="M75.5,251.3h-6.2v4.4h7.4v3.1H65.3v-17.5h11.4v3.1h-7.4v3.8h6.2V251.3z"/>
		<path class="st8" d="M85.5,252.1v6.7h-4.1v-17.5h6.1c2,0,3.6,0.5,4.8,1.4c1.2,0.9,1.8,2.2,1.8,3.8c0,0.9-0.2,1.7-0.7,2.3
			c-0.5,0.6-1.2,1.2-2.1,1.6c1.1,0.3,1.8,0.8,2.3,1.5c0.5,0.7,0.7,1.6,0.7,2.6v1.1c0,0.5,0.1,1,0.2,1.6c0.1,0.6,0.4,1,0.7,1.2v0.2
			h-4.2c-0.3-0.2-0.5-0.7-0.6-1.3c-0.1-0.6-0.1-1.2-0.1-1.8v-1.1c0-0.8-0.2-1.5-0.7-1.9c-0.4-0.4-1.1-0.7-1.9-0.7H85.5z M85.5,249
			h2.1c0.8,0,1.4-0.2,1.9-0.6c0.4-0.4,0.6-0.9,0.6-1.6c0-0.7-0.2-1.3-0.7-1.7c-0.4-0.4-1.1-0.7-1.9-0.7h-2V249z"/>
		<path class="st8" d="M103.9,258.8h-4v-17.5h4V258.8z"/>
		<path class="st8" d="M123.9,258.8h-4l-6.4-11l-0.1,0v11h-4.1v-17.5h4.1l6.4,11l0.1,0v-10.9h4V258.8z"/>
		<path class="st8" d="M143,256.4c-0.6,0.7-1.5,1.4-2.6,1.9c-1.1,0.5-2.5,0.8-4.3,0.8c-2.2,0-3.9-0.7-5.3-2c-1.4-1.3-2-3-2-5.2v-3.6
			c0-2.1,0.7-3.8,2-5.2c1.3-1.3,3-2,5.1-2c2.2,0,3.9,0.5,5.1,1.5c1.1,1,1.7,2.4,1.6,4.1l0,0.1h-3.8c0-0.9-0.2-1.5-0.7-1.9
			c-0.5-0.4-1.1-0.6-2.1-0.6c-0.9,0-1.7,0.4-2.3,1.1c-0.6,0.7-0.9,1.7-0.9,2.9v3.7c0,1.2,0.3,2.2,0.9,2.9c0.6,0.7,1.4,1.1,2.4,1.1
			c0.7,0,1.3-0.1,1.8-0.2c0.4-0.1,0.8-0.3,1-0.5v-3.1h-3.1v-2.7h7.1V256.4z"/>
	</g>
	<g>
		<path class="st4" d="M230.2,139c3,0.1,5.7-2.5,5.7-5.6c0-3.2-2.5-5.5-5.7-5.4c-2.9,0.1-5.4,2.6-5.4,5.5
			C224.8,136.2,227.4,138.9,230.2,139z"/>
		<path class="st2" d="M230.3,135.9c1.3,0,2.5-1.1,2.5-2.4c0-1.4-1.1-2.4-2.5-2.4c-1.3,0-2.3,1.1-2.3,2.4
			C227.9,134.7,229.1,135.9,230.3,135.9z"/>
		<path class="st4" d="M242.5,132.2c3,0.1,5.7-2.5,5.7-5.6c0-3.2-2.5-5.5-5.7-5.4c-2.9,0.1-5.4,2.6-5.4,5.5
			C237.1,129.4,239.7,132.1,242.5,132.2z"/>
		<path class="st5" d="M230.4,129c-2.5,0-4.5,2-4.6,4.4c0,2.4,2,4.5,4.5,4.5c2.5,0,4.5-1.9,4.5-4.4C234.9,131,232.9,129,230.4,129z
			 M230.2,135.9c-1.3-0.1-2.3-1.1-2.3-2.4c0-1.4,1.1-2.4,2.5-2.3c1.3,0.1,2.3,1.2,2.3,2.4C232.7,134.9,231.6,135.9,230.2,135.9z"/>
		<path class="st5" d="M242.5,131.1c2.5,0.1,4.6-1.9,4.7-4.3c0.1-2.4-1.9-4.6-4.3-4.7c-2.5-0.1-4.5,1.9-4.6,4.3
			C238.1,129,240,131.1,242.5,131.1z M242.5,124.3c1.4,0,2.5,1,2.5,2.4c0,1.3-1.2,2.5-2.5,2.4c-1.2,0-2.4-1.2-2.4-2.4
			C240.2,125.4,241.2,124.3,242.5,124.3z"/>
		<path class="st6" d="M234.2,117.7c-2.3,1.3-4.5,2.5-7,3.9c0,0,0,0,0,0l-3.6,2.1c-0.1,0.6-0.3,1.2-0.1,1.6c0.3,0.8,0.5,1.4,0,2.3
			c-0.2,0.4-0.1,1.1,0.1,1.5c0.7,1,0.3,1.7-0.1,2.6c-2,4.1-4,8.3-5.9,12.4c-0.5,1.1-0.7,2.1,0.1,3.1c3.4,4.4,6.8,8.9,10.3,13.3
			c1,1.3,2.2,1.4,3.9,0.4c1.3-0.7,1.1-1.8,0.7-2.9c-1.1-3.3-2.3-6.7-3.4-10c-0.1-0.4-0.5-1.1-0.3-1.3c1.4-2.1,2-4.8,4.4-6.2
			c3.6-2,7.3-3.9,10.8-6.1c2.8-1.8,5.7-2.5,9-2.2c1.1,0.1,1.8,0.4,2.5,1.2c2.2,2.8,4.5,5.5,6.7,8.2c1.2,1.4,2,1.4,3.5,0.3
			c1.3-0.9,1.5-2,0.9-3.4c-1.9-4.9-3.8-9.9-5.6-14.9c-0.6-1.5-1.4-2.2-3.1-2.4c-4.3-0.4-8.6-0.9-12.8-1.3c-1.2-0.1-2.4-0.1-3.1-1.6
			c-0.2-0.4-1-0.5-1.5-0.8c-0.4-0.2-1-0.3-1.1-0.6c-0.6-1.2-1.4-1.5-2.5-1L234.2,117.7C234.2,117.7,234.2,117.7,234.2,117.7z
			 M242.8,122.2c2.4,0.1,4.4,2.2,4.3,4.7c-0.1,2.4-2.2,4.4-4.7,4.3c-2.5-0.1-4.4-2.1-4.3-4.6C238.3,124,240.3,122.1,242.8,122.2z
			 M230.3,137.9c-2.5,0-4.5-2.1-4.5-4.5c0-2.5,2.1-4.4,4.6-4.4c2.5,0,4.5,2,4.4,4.5C234.8,136.1,232.8,138,230.3,137.9z"/>
		<path class="st2" d="M242.5,129.1c1.3,0,2.5-1.1,2.5-2.4c0-1.4-1.1-2.4-2.5-2.4c-1.3,0-2.3,1.1-2.3,2.4
			C240.2,127.9,241.3,129.1,242.5,129.1z"/>
		<path class="st6" d="M234.8,137.5l9.8,17.1c0,0,2.4,1.3,5,0.1c2.6-1.2,2.7-3.9,2.7-3.9l-9.8-19.6L234.8,137.5z"/>
	</g>
	<path class="st6" d="M121.6,223.7c0-5-1.3-6.3-6.3-6.3c-4,0-8.1,0-12.3,0c0-0.1,0-0.1,0-0.2H62.6c0,0.1,0,0.1,0,0.2
		c-4.5,0-8.8,0-13.1,0c-3.7,0-5.3,1.6-5.3,5.3c0,3.1,0,8.2,0,11.6h77.5C121.6,231.4,121.6,226.5,121.6,223.7z"/>
	<g>
		<polygon class="st4" points="224.6,242.5 220.7,253.1 228.5,253.1 224.7,242.5 		"/>
		<polygon class="st4" points="187.2,242.5 183.4,253.1 191.1,253.1 187.3,242.5 		"/>
		<path class="st4" d="M282.1,245.7c0-1.3-0.4-2.3-1.2-3c-0.8-0.7-2.1-1.1-3.8-1.1h-5v8.1h4.8c1.8,0,3.1-0.4,4-1.1
			C281.7,247.9,282.1,246.9,282.1,245.7z"/>
		<path class="st4" d="M292.7,237c0-2.6-1.1-3.6-3.7-3.7c-5.3,0-261.7,0-265,0c-3.3,0-4.1,0.9-4.2,4.2c0,7.6,0,15.2,0,22.8
			c0,4.1,0.6,4.7,4.8,4.7c87.4,0,174.7,0,262.1,0c0.8,0,1.5,0,2.3,0c2.5-0.1,3.6-1.1,3.7-3.7C292.8,253.2,292.8,245.1,292.7,237z
			 M149,260.7H25.6v-22.5H149V260.7z M175.8,260.2h-1.6v-16.8l-0.1,0l-7.2,16.8h-1.2l-7.3-17.2l-0.1,0v17.2h-1.6v-20h2.2l7.4,17.6
			h0.1l7.4-17.6h2V260.2z M193.6,260.2l-2-5.6h-8.8l-2,5.6h-1.7l7.4-20h1.6l7.3,20H193.6z M213.2,260.2h-1.6L200.2,243l-0.1,0v17.1
			h-1.6v-20h1.6l11.4,17.1l0.1,0v-17.1h1.6V260.2z M231,260.2l-2-5.6h-8.8l-2,5.6h-1.7l7.4-20h1.6l7.3,20H231z M249.8,257.5
			c-0.4,0.7-1.3,1.4-2.4,2c-1.2,0.6-2.7,0.9-4.5,0.9c-2.3,0-4.2-0.8-5.6-2.4c-1.5-1.6-2.2-3.6-2.2-6.2v-3.7c0-2.5,0.7-4.5,2.1-6
			c1.4-1.6,3.3-2.3,5.5-2.3c2.2,0,3.9,0.6,5.2,1.7c1.3,1.1,1.9,2.6,1.9,4.4l0,0.1h-1.5c0-1.4-0.5-2.5-1.4-3.4
			c-1-0.9-2.3-1.3-4.1-1.3c-1.8,0-3.2,0.7-4.3,2c-1.1,1.3-1.6,3-1.6,5v3.7c0,2.1,0.6,3.8,1.7,5.1c1.1,1.3,2.6,2,4.5,2
			c1.4,0,2.5-0.2,3.4-0.6c0.9-0.4,1.5-0.9,1.9-1.5v-5.1h-5.4v-1.4h7V257.5z M267,260.2h-12v-20h12v1.4h-10.3v7.5h9v1.4h-9v8.3H267
			V260.2z M284.7,260.2H283c-0.3-0.3-0.6-0.8-0.7-1.4c-0.1-0.6-0.2-1.2-0.2-1.9v-1.8c0-1.2-0.4-2.2-1.2-2.9
			c-0.8-0.7-1.9-1.1-3.3-1.1h-5.5v9h-1.6v-20h6.7c2.1,0,3.8,0.5,4.9,1.4c1.1,0.9,1.7,2.3,1.7,4.1c0,1.1-0.3,2-0.9,2.9
			c-0.6,0.8-1.5,1.4-2.6,1.8c1.2,0.3,2.1,0.9,2.7,1.7c0.5,0.8,0.8,1.8,0.8,3v1.9c0,0.6,0.1,1.2,0.2,1.7c0.1,0.5,0.4,0.9,0.7,1.2
			V260.2z"/>
	</g>
	<g>
		<path class="st5" d="M185.2,167.5c-0.5-3.3-1.4-6.6-3-9.6c-1.9-3.5-4.5-6.1-8.4-7.3c-3.1-1-6.2-1.2-9.4-0.9
			c-2.9,0.3-5.7,1-8.3,2.2c-2.1,1-4,2.3-5.4,4.2c-2.4,3.2-2.7,6.9-2.1,10.7c0.6,3.3,2.5,5.8,5.2,7.7c3.1,2.2,6.5,3,10.2,3
			c2.5,0,5.1-0.3,7.5-0.9c4.7-1,9.2-2.6,13.7-4.2c0.3-0.1,0.3-0.3,0.3-0.5C185.5,170.4,185.5,169,185.2,167.5z"/>
		<path class="st0" d="M240.1,149.4c-0.5-2.3-2.9-4.4-5.8-2.6c-4.7,3-9.4,5.9-14.3,8.7c-7.9,4.6-16,8.8-24.3,12.6
			c-0.9,0.4-1.7,0.8-2.6,1.2c-0.1-0.6-0.1-1.1-0.2-1.6c-0.6-4.4-1.8-8.7-3.9-12.7c-4.1-7.8-10.4-12.1-19.2-12.9
			c-2.6-0.2-5.2-0.2-7.9,0.2c-3.9,0.5-7.6,1.7-11,3.7c-4,2.3-7.1,5.4-8.9,9.7c-1.6,3.9-2,7.9-1.3,12c0.9,5,3.1,9.2,7.2,12.3
			c2.4,1.9,5.2,3.3,8.2,4.1c4.8,1.4,9.6,1.4,14.4,0.8c4.2-0.6,8.2-1.7,12.1-3.1c0.6-0.2,1.2-0.4,1.9-0.7c-0.1,0.5-0.2,0.9-0.4,1.3
			c-2.2,6.8-6.3,12-12.9,15c-4.8,2.2-9.9,3-15.1,3.1c-4.2,0.1-8.4-0.3-12.6-0.6c-2.6-0.2-6.6-0.4-9.3-0.4l0.4,7.7
			c1.8,0,4.5,0,6.3,0.1c3.3,0.2,6.6,0.6,10,0.9c3.4,0.3,6.8,0.2,10.2-0.2c3.9-0.5,7.7-1.4,11.4-2.8c4.1-1.6,7.9-3.7,11.1-6.9
			c5.5-5.6,8.3-12.4,9.2-20.2c0-0.3,0.1-0.4,0.4-0.6c1.2-0.5,2.3-1,3.5-1.5c14.4-6.4,28.2-13.9,41.4-22.5
			C239.8,152.5,240.4,151.1,240.1,149.4z M185.4,172.4c-4.5,1.7-9,3.3-13.7,4.2c-2.5,0.5-5,0.8-7.5,0.9c-3.7,0.1-7.2-0.8-10.2-3
			c-2.7-1.9-4.6-4.4-5.2-7.7c-0.6-3.8-0.3-7.5,2.1-10.7c1.4-1.9,3.3-3.2,5.4-4.2c2.6-1.3,5.4-2,8.3-2.2c3.2-0.3,6.3-0.1,9.4,0.9
			c3.9,1.2,6.5,3.8,8.4,7.3c1.6,3,2.5,6.2,3,9.6c0.2,1.5,0.3,3,0.5,4.4C185.7,172.2,185.7,172.3,185.4,172.4z"/>
	</g>
	<polygon class="st3" points="238.2,143.4 242.9,151.5 236.2,156.2 231.1,147.9 	"/>
</g>
</svg>
