<svg xmlns="http://www.w3.org/2000/svg" viewBox="0 0 108 98.97"><defs><style>.cls-1{fill:#eb0029;}.cls-2{fill:#003b4c;}</style></defs><title>decix_logo</title><g id="Ebene_2" data-name="Ebene 2"><g id="Ebene_1-2" data-name="Ebene 1"><path class="cls-1" d="M30.51,47.74c7.88,0,23.63-7.59,23.63-7.59v-.09a7.78,7.78,0,0,1-7.88-7.68A7.48,7.48,0,0,1,47,29.14c1.58-3.62,5.61-7.63,11.17-14.26,5.28-6.31,11.17-12.27,5-14.22C53.38-2.4,38.8,5.41,29.07,19.37c-5.74,8.24-7.31,14.79-7.31,19.75,0,3.43,1.6,8.61,8.74,8.61"/><path class="cls-2" d="M79.21,45.38c5.74-8.24,7.31-14.79,7.31-19.75,0-3.43-1.6-8.61-8.74-8.61C69.9,17,54.14,24.6,54.14,24.6v.09A7.78,7.78,0,0,1,62,32.38a7.47,7.47,0,0,1-.74,3.23c-1.58,3.62-5.61,7.63-11.17,14.26-5.28,6.31-11.16,12.27-5,14.22,9.74,3.06,24.32-4.75,34.05-18.72"/><rect class="cls-2" x="76.19" y="74.02" width="5.46" height="24.95"/><path class="cls-2" d="M55.94,84.17v4.66h-3a17,17,0,0,0,.82,3.84,9.05,9.05,0,0,0,2.9,4.15,8.42,8.42,0,0,0,3.68,1.77A21.07,21.07,0,0,0,64.4,99h7.67V94.69H64.33c-.21,0-.43,0-.64-.05a4.4,4.4,0,0,1-3.92-2.45,14,14,0,0,1,0-11.4,4.4,4.4,0,0,1,3.92-2.45c.21,0,.43-.05.64-.05h7.74V74H64.4a21.07,21.07,0,0,0-4.06.38,8.42,8.42,0,0,0-3.68,1.77,9.05,9.05,0,0,0-2.9,4.15,17,17,0,0,0-.82,3.84Z"/><path class="cls-2" d="M21.89,83.84a17.61,17.61,0,0,0-.5-2.53,15.57,15.57,0,0,0-.78-2.19,7.36,7.36,0,0,0-1-1.67,8.06,8.06,0,0,0-3.8-2.64A19.48,19.48,0,0,0,9.62,74H0V99H9.62l2.16,0c.62,0,1.16,0,1.62-.1s.88-.11,1.25-.17a6.23,6.23,0,0,0,1.08-.28A8.12,8.12,0,0,0,19,96.52a8.24,8.24,0,0,0,2-3.35A17.88,17.88,0,0,0,21.78,90a22.16,22.16,0,0,0,.28-3.44A21.73,21.73,0,0,0,21.89,83.84Zm-6.11,6.34a7.35,7.35,0,0,1-1.25,2.69,4,4,0,0,1-1.92,1.24,9.65,9.65,0,0,1-3,.41H5.28V78.46H9.62a10.65,10.65,0,0,1,2.61.26,4.38,4.38,0,0,1,1.75.9,5.84,5.84,0,0,1,1.66,2.73,13.31,13.31,0,0,1,.61,4.15A14.06,14.06,0,0,1,15.78,90.17Z"/><path class="cls-2" d="M43.76,74h-7a12.48,12.48,0,0,0-7,1.64A9.53,9.53,0,0,0,25.87,81a17,17,0,0,0-.68,4.31c0,.38,0,.76,0,1.15s0,.76,0,1.15a13.82,13.82,0,0,0,1.85,7,9,9,0,0,0,5.39,3.89,19.44,19.44,0,0,0,4.31.43h7V94.63H37a5.91,5.91,0,0,1-4.21-1.47,6.69,6.69,0,0,1-1.67-4.37H41.71V84.2H31.11a6.69,6.69,0,0,1,1.67-4.37A5.91,5.91,0,0,1,37,78.36h6.77Z"/><polygon class="cls-2" points="99.66 86.49 108 74.02 101.4 74.02 96.42 81.75 91.44 74.02 84.83 74.02 93.18 86.49 84.83 98.97 91.44 98.97 96.42 91.24 101.4 98.97 108 98.97 99.66 86.49"/></g></g></svg>